ISO-10303-21;
HEADER;
/* Generated by software containing ST-Developer
 * from STEP Tools, Inc. (www.steptools.com) 
 */

FILE_DESCRIPTION(
/* description */ (''),
/* implementation_level */ '2;1');

FILE_NAME(
/* name */ 'VNA_Kutu_Alt.step',
/* time_stamp */ '2026-09-12T16:21:41+03:00',
/* author */ (''),
/* organization */ (''),
/* preprocessor_version */ 'ST-DEVELOPER v20.2',
/* originating_system */ 'Autodesk Translation Framework v15.15.0.0',
/* authorisation */ '');

FILE_SCHEMA (('AUTOMOTIVE_DESIGN { 1 0 10303 214 3 1 1 }'));
ENDSEC;

DATA;
#10=MECHANICAL_DESIGN_GEOMETRIC_PRESENTATION_REPRESENTATION('',(#13),#1329);
#11=SHAPE_REPRESENTATION_RELATIONSHIP('SRR','None',#1336,#12);
#12=ADVANCED_BREP_SHAPE_REPRESENTATION('',(#14),#1328);
#13=STYLED_ITEM('',(#1345),#14);
#14=MANIFOLD_SOLID_BREP('G\X\F6vde1',#695);
#15=TOROIDAL_SURFACE('',#746,4.64999999999999,2.);
#16=TOROIDAL_SURFACE('',#749,4.65,2.);
#17=TOROIDAL_SURFACE('',#754,4.64999999999999,2.);
#18=FACE_BOUND('',#214,.T.);
#19=FACE_BOUND('',#215,.T.);
#20=FACE_BOUND('',#216,.T.);
#21=FACE_BOUND('',#223,.T.);
#22=FACE_BOUND('',#225,.T.);
#23=FACE_BOUND('',#227,.T.);
#24=FACE_BOUND('',#234,.T.);
#25=FACE_BOUND('',#235,.T.);
#26=FACE_BOUND('',#236,.T.);
#27=FACE_BOUND('',#237,.T.);
#28=FACE_BOUND('',#248,.T.);
#29=FACE_BOUND('',#249,.T.);
#30=FACE_BOUND('',#250,.T.);
#31=FACE_BOUND('',#251,.T.);
#32=FACE_BOUND('',#252,.T.);
#33=FACE_BOUND('',#253,.T.);
#34=FACE_BOUND('',#256,.T.);
#35=PLANE('',#719);
#36=PLANE('',#720);
#37=PLANE('',#721);
#38=PLANE('',#722);
#39=PLANE('',#723);
#40=PLANE('',#727);
#41=PLANE('',#728);
#42=PLANE('',#729);
#43=PLANE('',#730);
#44=PLANE('',#731);
#45=PLANE('',#734);
#46=PLANE('',#737);
#47=PLANE('',#752);
#48=PLANE('',#774);
#49=PLANE('',#775);
#50=PLANE('',#781);
#51=PLANE('',#785);
#52=PLANE('',#787);
#53=PLANE('',#788);
#54=LINE('',#1068,#103);
#55=LINE('',#1072,#104);
#56=LINE('',#1076,#105);
#57=LINE('',#1078,#106);
#58=LINE('',#1080,#107);
#59=LINE('',#1081,#108);
#60=LINE('',#1084,#109);
#61=LINE('',#1086,#110);
#62=LINE('',#1087,#111);
#63=LINE('',#1090,#112);
#64=LINE('',#1092,#113);
#65=LINE('',#1093,#114);
#66=LINE('',#1095,#115);
#67=LINE('',#1096,#116);
#68=LINE('',#1102,#117);
#69=LINE('',#1107,#118);
#70=LINE('',#1109,#119);
#71=LINE('',#1111,#120);
#72=LINE('',#1112,#121);
#73=LINE('',#1116,#122);
#74=LINE('',#1118,#123);
#75=LINE('',#1120,#124);
#76=LINE('',#1121,#125);
#77=LINE('',#1124,#126);
#78=LINE('',#1126,#127);
#79=LINE('',#1127,#128);
#80=LINE('',#1130,#129);
#81=LINE('',#1132,#130);
#82=LINE('',#1133,#131);
#83=LINE('',#1151,#132);
#84=LINE('',#1155,#133);
#85=LINE('',#1159,#134);
#86=LINE('',#1170,#135);
#87=LINE('',#1179,#136);
#88=LINE('',#1215,#137);
#89=LINE('',#1251,#138);
#90=LINE('',#1287,#139);
#91=LINE('',#1291,#140);
#92=LINE('',#1293,#141);
#93=LINE('',#1294,#142);
#94=LINE('',#1299,#143);
#95=LINE('',#1303,#144);
#96=LINE('',#1308,#145);
#97=LINE('',#1312,#146);
#98=LINE('',#1315,#147);
#99=LINE('',#1317,#148);
#100=LINE('',#1319,#149);
#101=LINE('',#1321,#150);
#102=LINE('',#1323,#151);
#103=VECTOR('',#807,2.15);
#104=VECTOR('',#812,2.15);
#105=VECTOR('',#815,10.);
#106=VECTOR('',#816,10.);
#107=VECTOR('',#817,10.);
#108=VECTOR('',#818,10.);
#109=VECTOR('',#821,10.);
#110=VECTOR('',#822,10.);
#111=VECTOR('',#823,10.);
#112=VECTOR('',#826,10.);
#113=VECTOR('',#827,10.);
#114=VECTOR('',#828,10.);
#115=VECTOR('',#831,10.);
#116=VECTOR('',#832,10.);
#117=VECTOR('',#839,22.5);
#118=VECTOR('',#844,10.);
#119=VECTOR('',#845,10.);
#120=VECTOR('',#846,10.);
#121=VECTOR('',#847,10.);
#122=VECTOR('',#850,10.);
#123=VECTOR('',#851,10.);
#124=VECTOR('',#852,10.);
#125=VECTOR('',#853,10.);
#126=VECTOR('',#856,10.);
#127=VECTOR('',#857,10.);
#128=VECTOR('',#858,10.);
#129=VECTOR('',#861,10.);
#130=VECTOR('',#862,10.);
#131=VECTOR('',#863,10.);
#132=VECTOR('',#884,1.65);
#133=VECTOR('',#889,1.65000000000001);
#134=VECTOR('',#894,1.65000000000001);
#135=VECTOR('',#911,10.);
#136=VECTOR('',#922,3.5);
#137=VECTOR('',#933,3.5);
#138=VECTOR('',#944,3.5);
#139=VECTOR('',#955,10.);
#140=VECTOR('',#960,10.);
#141=VECTOR('',#961,10.);
#142=VECTOR('',#962,10.);
#143=VECTOR('',#967,10.);
#144=VECTOR('',#970,10.);
#145=VECTOR('',#977,10.);
#146=VECTOR('',#980,10.);
#147=VECTOR('',#983,10.);
#148=VECTOR('',#986,10.);
#149=VECTOR('',#989,10.);
#150=VECTOR('',#992,10.);
#151=VECTOR('',#995,10.);
#152=CYLINDRICAL_SURFACE('',#715,2.15);
#153=CYLINDRICAL_SURFACE('',#717,2.15);
#154=CYLINDRICAL_SURFACE('',#725,22.5);
#155=CYLINDRICAL_SURFACE('',#740,1.65);
#156=CYLINDRICAL_SURFACE('',#742,1.65000000000001);
#157=CYLINDRICAL_SURFACE('',#744,1.65000000000001);
#158=CYLINDRICAL_SURFACE('',#756,3.5);
#159=CYLINDRICAL_SURFACE('',#761,3.5);
#160=CYLINDRICAL_SURFACE('',#766,3.5);
#161=CYLINDRICAL_SURFACE('',#771,2.);
#162=CYLINDRICAL_SURFACE('',#779,2.);
#163=CYLINDRICAL_SURFACE('',#784,2.);
#164=CYLINDRICAL_SURFACE('',#786,2.);
#165=FACE_OUTER_BOUND('',#205,.T.);
#166=FACE_OUTER_BOUND('',#206,.T.);
#167=FACE_OUTER_BOUND('',#207,.T.);
#168=FACE_OUTER_BOUND('',#208,.T.);
#169=FACE_OUTER_BOUND('',#209,.T.);
#170=FACE_OUTER_BOUND('',#210,.T.);
#171=FACE_OUTER_BOUND('',#211,.T.);
#172=FACE_OUTER_BOUND('',#212,.T.);
#173=FACE_OUTER_BOUND('',#213,.T.);
#174=FACE_OUTER_BOUND('',#217,.T.);
#175=FACE_OUTER_BOUND('',#218,.T.);
#176=FACE_OUTER_BOUND('',#219,.T.);
#177=FACE_OUTER_BOUND('',#220,.T.);
#178=FACE_OUTER_BOUND('',#221,.T.);
#179=FACE_OUTER_BOUND('',#222,.T.);
#180=FACE_OUTER_BOUND('',#224,.T.);
#181=FACE_OUTER_BOUND('',#226,.T.);
#182=FACE_OUTER_BOUND('',#228,.T.);
#183=FACE_OUTER_BOUND('',#229,.T.);
#184=FACE_OUTER_BOUND('',#230,.T.);
#185=FACE_OUTER_BOUND('',#231,.T.);
#186=FACE_OUTER_BOUND('',#232,.T.);
#187=FACE_OUTER_BOUND('',#233,.T.);
#188=FACE_OUTER_BOUND('',#238,.T.);
#189=FACE_OUTER_BOUND('',#239,.T.);
#190=FACE_OUTER_BOUND('',#240,.T.);
#191=FACE_OUTER_BOUND('',#241,.T.);
#192=FACE_OUTER_BOUND('',#242,.T.);
#193=FACE_OUTER_BOUND('',#243,.T.);
#194=FACE_OUTER_BOUND('',#244,.T.);
#195=FACE_OUTER_BOUND('',#245,.T.);
#196=FACE_OUTER_BOUND('',#246,.T.);
#197=FACE_OUTER_BOUND('',#247,.T.);
#198=FACE_OUTER_BOUND('',#254,.T.);
#199=FACE_OUTER_BOUND('',#255,.T.);
#200=FACE_OUTER_BOUND('',#257,.T.);
#201=FACE_OUTER_BOUND('',#258,.T.);
#202=FACE_OUTER_BOUND('',#259,.T.);
#203=FACE_OUTER_BOUND('',#260,.T.);
#204=FACE_OUTER_BOUND('',#261,.T.);
#205=EDGE_LOOP('',(#462,#463,#464,#465));
#206=EDGE_LOOP('',(#466,#467,#468,#469));
#207=EDGE_LOOP('',(#470,#471,#472,#473));
#208=EDGE_LOOP('',(#474,#475,#476,#477));
#209=EDGE_LOOP('',(#478,#479,#480,#481));
#210=EDGE_LOOP('',(#482,#483,#484,#485));
#211=EDGE_LOOP('',(#486,#487,#488,#489));
#212=EDGE_LOOP('',(#490,#491,#492,#493));
#213=EDGE_LOOP('',(#494,#495,#496,#497));
#214=EDGE_LOOP('',(#498));
#215=EDGE_LOOP('',(#499));
#216=EDGE_LOOP('',(#500));
#217=EDGE_LOOP('',(#501,#502,#503,#504));
#218=EDGE_LOOP('',(#505,#506,#507,#508));
#219=EDGE_LOOP('',(#509,#510,#511,#512));
#220=EDGE_LOOP('',(#513,#514,#515,#516));
#221=EDGE_LOOP('',(#517,#518,#519,#520));
#222=EDGE_LOOP('',(#521));
#223=EDGE_LOOP('',(#522));
#224=EDGE_LOOP('',(#523));
#225=EDGE_LOOP('',(#524));
#226=EDGE_LOOP('',(#525));
#227=EDGE_LOOP('',(#526));
#228=EDGE_LOOP('',(#527,#528,#529,#530));
#229=EDGE_LOOP('',(#531,#532,#533,#534));
#230=EDGE_LOOP('',(#535,#536,#537,#538));
#231=EDGE_LOOP('',(#539,#540,#541,#542));
#232=EDGE_LOOP('',(#543,#544,#545,#546));
#233=EDGE_LOOP('',(#547,#548,#549,#550));
#234=EDGE_LOOP('',(#551));
#235=EDGE_LOOP('',(#552));
#236=EDGE_LOOP('',(#553));
#237=EDGE_LOOP('',(#554,#555,#556,#557));
#238=EDGE_LOOP('',(#558,#559,#560,#561));
#239=EDGE_LOOP('',(#562,#563,#564,#565,#566));
#240=EDGE_LOOP('',(#567,#568,#569,#570,#571));
#241=EDGE_LOOP('',(#572,#573,#574,#575,#576));
#242=EDGE_LOOP('',(#577,#578,#579,#580,#581));
#243=EDGE_LOOP('',(#582,#583,#584,#585,#586));
#244=EDGE_LOOP('',(#587,#588,#589,#590,#591));
#245=EDGE_LOOP('',(#592,#593,#594,#595));
#246=EDGE_LOOP('',(#596,#597,#598,#599));
#247=EDGE_LOOP('',(#600,#601,#602,#603,#604,#605,#606,#607));
#248=EDGE_LOOP('',(#608));
#249=EDGE_LOOP('',(#609));
#250=EDGE_LOOP('',(#610));
#251=EDGE_LOOP('',(#611));
#252=EDGE_LOOP('',(#612));
#253=EDGE_LOOP('',(#613));
#254=EDGE_LOOP('',(#614,#615,#616,#617));
#255=EDGE_LOOP('',(#618,#619,#620,#621,#622,#623,#624,#625));
#256=EDGE_LOOP('',(#626,#627,#628,#629));
#257=EDGE_LOOP('',(#630,#631,#632,#633));
#258=EDGE_LOOP('',(#634,#635,#636,#637));
#259=EDGE_LOOP('',(#638,#639,#640,#641));
#260=EDGE_LOOP('',(#642,#643,#644,#645));
#261=EDGE_LOOP('',(#646,#647,#648,#649));
#262=CIRCLE('',#709,2.15);
#263=CIRCLE('',#710,2.5);
#264=CIRCLE('',#711,3.5);
#265=CIRCLE('',#712,2.15);
#266=CIRCLE('',#713,2.5);
#267=CIRCLE('',#714,3.50000000000001);
#268=CIRCLE('',#716,2.15);
#269=CIRCLE('',#718,2.15);
#270=CIRCLE('',#724,22.5);
#271=CIRCLE('',#726,22.5);
#272=CIRCLE('',#732,2.65);
#273=CIRCLE('',#733,1.65);
#274=CIRCLE('',#735,2.64999999999999);
#275=CIRCLE('',#736,1.65000000000001);
#276=CIRCLE('',#738,2.64999999999999);
#277=CIRCLE('',#739,1.65000000000001);
#278=CIRCLE('',#741,1.65);
#279=CIRCLE('',#743,1.65000000000001);
#280=CIRCLE('',#745,1.65000000000001);
#281=CIRCLE('',#747,2.);
#282=CIRCLE('',#748,4.64999999999999);
#283=CIRCLE('',#750,2.);
#284=CIRCLE('',#751,4.65);
#285=CIRCLE('',#753,4.64999999999999);
#286=CIRCLE('',#755,2.);
#287=CIRCLE('',#757,3.5);
#288=CIRCLE('',#758,3.5);
#289=CIRCLE('',#759,3.5);
#290=CIRCLE('',#760,2.);
#291=CIRCLE('',#762,3.5);
#292=CIRCLE('',#763,3.5);
#293=CIRCLE('',#764,3.5);
#294=CIRCLE('',#765,2.);
#295=CIRCLE('',#767,3.5);
#296=CIRCLE('',#768,3.5);
#297=CIRCLE('',#769,3.5);
#298=CIRCLE('',#770,2.);
#299=CIRCLE('',#772,2.);
#300=CIRCLE('',#773,2.);
#301=CIRCLE('',#776,2.);
#302=CIRCLE('',#777,2.);
#303=CIRCLE('',#778,2.);
#304=CIRCLE('',#780,2.);
#305=CIRCLE('',#782,2.);
#306=CIRCLE('',#783,2.);
#307=VERTEX_POINT('',#1028);
#308=VERTEX_POINT('',#1030);
#309=VERTEX_POINT('',#1060);
#310=VERTEX_POINT('',#1062);
#311=VERTEX_POINT('',#1066);
#312=VERTEX_POINT('',#1070);
#313=VERTEX_POINT('',#1074);
#314=VERTEX_POINT('',#1075);
#315=VERTEX_POINT('',#1077);
#316=VERTEX_POINT('',#1079);
#317=VERTEX_POINT('',#1083);
#318=VERTEX_POINT('',#1085);
#319=VERTEX_POINT('',#1089);
#320=VERTEX_POINT('',#1091);
#321=VERTEX_POINT('',#1098);
#322=VERTEX_POINT('',#1101);
#323=VERTEX_POINT('',#1105);
#324=VERTEX_POINT('',#1106);
#325=VERTEX_POINT('',#1108);
#326=VERTEX_POINT('',#1110);
#327=VERTEX_POINT('',#1114);
#328=VERTEX_POINT('',#1115);
#329=VERTEX_POINT('',#1117);
#330=VERTEX_POINT('',#1119);
#331=VERTEX_POINT('',#1123);
#332=VERTEX_POINT('',#1125);
#333=VERTEX_POINT('',#1129);
#334=VERTEX_POINT('',#1131);
#335=VERTEX_POINT('',#1135);
#336=VERTEX_POINT('',#1137);
#337=VERTEX_POINT('',#1140);
#338=VERTEX_POINT('',#1142);
#339=VERTEX_POINT('',#1145);
#340=VERTEX_POINT('',#1147);
#341=VERTEX_POINT('',#1150);
#342=VERTEX_POINT('',#1154);
#343=VERTEX_POINT('',#1158);
#344=VERTEX_POINT('',#1162);
#345=VERTEX_POINT('',#1166);
#346=VERTEX_POINT('',#1171);
#347=VERTEX_POINT('',#1176);
#348=VERTEX_POINT('',#1178);
#349=VERTEX_POINT('',#1180);
#350=VERTEX_POINT('',#1212);
#351=VERTEX_POINT('',#1214);
#352=VERTEX_POINT('',#1216);
#353=VERTEX_POINT('',#1248);
#354=VERTEX_POINT('',#1250);
#355=VERTEX_POINT('',#1252);
#356=VERTEX_POINT('',#1284);
#357=VERTEX_POINT('',#1286);
#358=VERTEX_POINT('',#1290);
#359=VERTEX_POINT('',#1292);
#360=VERTEX_POINT('',#1296);
#361=VERTEX_POINT('',#1298);
#362=VERTEX_POINT('',#1300);
#363=VERTEX_POINT('',#1302);
#364=VERTEX_POINT('',#1306);
#365=VERTEX_POINT('',#1310);
#366=VERTEX_POINT('',#1311);
#367=VERTEX_POINT('',#1313);
#368=EDGE_CURVE('',#307,#307,#262,.T.);
#369=EDGE_CURVE('',#307,#308,#263,.T.);
#370=EDGE_CURVE('',#308,#308,#264,.T.);
#371=EDGE_CURVE('',#309,#309,#265,.T.);
#372=EDGE_CURVE('',#309,#310,#266,.T.);
#373=EDGE_CURVE('',#310,#310,#267,.T.);
#374=EDGE_CURVE('',#311,#311,#268,.T.);
#375=EDGE_CURVE('',#311,#309,#54,.T.);
#376=EDGE_CURVE('',#312,#312,#269,.T.);
#377=EDGE_CURVE('',#312,#307,#55,.T.);
#378=EDGE_CURVE('',#313,#314,#56,.T.);
#379=EDGE_CURVE('',#313,#315,#57,.T.);
#380=EDGE_CURVE('',#316,#315,#58,.T.);
#381=EDGE_CURVE('',#314,#316,#59,.T.);
#382=EDGE_CURVE('',#314,#317,#60,.T.);
#383=EDGE_CURVE('',#318,#316,#61,.T.);
#384=EDGE_CURVE('',#317,#318,#62,.T.);
#385=EDGE_CURVE('',#317,#319,#63,.T.);
#386=EDGE_CURVE('',#320,#318,#64,.T.);
#387=EDGE_CURVE('',#319,#320,#65,.T.);
#388=EDGE_CURVE('',#319,#313,#66,.T.);
#389=EDGE_CURVE('',#315,#320,#67,.T.);
#390=EDGE_CURVE('',#321,#321,#270,.T.);
#391=EDGE_CURVE('',#321,#322,#68,.T.);
#392=EDGE_CURVE('',#322,#322,#271,.T.);
#393=EDGE_CURVE('',#323,#324,#69,.T.);
#394=EDGE_CURVE('',#325,#323,#70,.T.);
#395=EDGE_CURVE('',#326,#325,#71,.T.);
#396=EDGE_CURVE('',#324,#326,#72,.T.);
#397=EDGE_CURVE('',#327,#328,#73,.T.);
#398=EDGE_CURVE('',#327,#329,#74,.T.);
#399=EDGE_CURVE('',#329,#330,#75,.T.);
#400=EDGE_CURVE('',#330,#328,#76,.T.);
#401=EDGE_CURVE('',#331,#327,#77,.T.);
#402=EDGE_CURVE('',#332,#331,#78,.T.);
#403=EDGE_CURVE('',#332,#329,#79,.T.);
#404=EDGE_CURVE('',#328,#333,#80,.T.);
#405=EDGE_CURVE('',#330,#334,#81,.T.);
#406=EDGE_CURVE('',#333,#334,#82,.T.);
#407=EDGE_CURVE('',#335,#335,#272,.T.);
#408=EDGE_CURVE('',#336,#336,#273,.T.);
#409=EDGE_CURVE('',#337,#337,#274,.T.);
#410=EDGE_CURVE('',#338,#338,#275,.T.);
#411=EDGE_CURVE('',#339,#339,#276,.T.);
#412=EDGE_CURVE('',#340,#340,#277,.T.);
#413=EDGE_CURVE('',#336,#341,#83,.T.);
#414=EDGE_CURVE('',#341,#341,#278,.T.);
#415=EDGE_CURVE('',#338,#342,#84,.T.);
#416=EDGE_CURVE('',#342,#342,#279,.T.);
#417=EDGE_CURVE('',#340,#343,#85,.T.);
#418=EDGE_CURVE('',#343,#343,#280,.T.);
#419=EDGE_CURVE('',#339,#344,#281,.T.);
#420=EDGE_CURVE('',#344,#344,#282,.T.);
#421=EDGE_CURVE('',#335,#345,#283,.T.);
#422=EDGE_CURVE('',#345,#345,#284,.T.);
#423=EDGE_CURVE('',#334,#332,#86,.T.);
#424=EDGE_CURVE('',#346,#346,#285,.T.);
#425=EDGE_CURVE('',#337,#346,#286,.T.);
#426=EDGE_CURVE('',#347,#347,#287,.T.);
#427=EDGE_CURVE('',#347,#348,#87,.T.);
#428=EDGE_CURVE('',#349,#348,#288,.T.);
#429=EDGE_CURVE('',#348,#349,#289,.T.);
#430=EDGE_CURVE('',#349,#343,#290,.T.);
#431=EDGE_CURVE('',#350,#350,#291,.T.);
#432=EDGE_CURVE('',#350,#351,#88,.T.);
#433=EDGE_CURVE('',#352,#351,#292,.T.);
#434=EDGE_CURVE('',#351,#352,#293,.T.);
#435=EDGE_CURVE('',#352,#341,#294,.T.);
#436=EDGE_CURVE('',#353,#353,#295,.T.);
#437=EDGE_CURVE('',#353,#354,#89,.T.);
#438=EDGE_CURVE('',#355,#354,#296,.T.);
#439=EDGE_CURVE('',#354,#355,#297,.T.);
#440=EDGE_CURVE('',#355,#342,#298,.T.);
#441=EDGE_CURVE('',#326,#356,#299,.T.);
#442=EDGE_CURVE('',#356,#357,#90,.T.);
#443=EDGE_CURVE('',#357,#324,#300,.T.);
#444=EDGE_CURVE('',#357,#358,#91,.T.);
#445=EDGE_CURVE('',#359,#356,#92,.T.);
#446=EDGE_CURVE('',#358,#359,#93,.T.);
#447=EDGE_CURVE('',#360,#325,#301,.T.);
#448=EDGE_CURVE('',#360,#361,#94,.T.);
#449=EDGE_CURVE('',#362,#361,#302,.T.);
#450=EDGE_CURVE('',#362,#363,#95,.T.);
#451=EDGE_CURVE('',#359,#363,#303,.T.);
#452=EDGE_CURVE('',#364,#323,#304,.T.);
#453=EDGE_CURVE('',#364,#360,#96,.T.);
#454=EDGE_CURVE('',#365,#366,#97,.T.);
#455=EDGE_CURVE('',#366,#367,#305,.T.);
#456=EDGE_CURVE('',#367,#364,#98,.T.);
#457=EDGE_CURVE('',#358,#365,#306,.T.);
#458=EDGE_CURVE('',#333,#331,#99,.T.);
#459=EDGE_CURVE('',#363,#365,#100,.T.);
#460=EDGE_CURVE('',#366,#362,#101,.T.);
#461=EDGE_CURVE('',#361,#367,#102,.T.);
#462=ORIENTED_EDGE('',*,*,#368,.F.);
#463=ORIENTED_EDGE('',*,*,#369,.T.);
#464=ORIENTED_EDGE('',*,*,#370,.F.);
#465=ORIENTED_EDGE('',*,*,#369,.F.);
#466=ORIENTED_EDGE('',*,*,#371,.F.);
#467=ORIENTED_EDGE('',*,*,#372,.T.);
#468=ORIENTED_EDGE('',*,*,#373,.F.);
#469=ORIENTED_EDGE('',*,*,#372,.F.);
#470=ORIENTED_EDGE('',*,*,#374,.F.);
#471=ORIENTED_EDGE('',*,*,#375,.T.);
#472=ORIENTED_EDGE('',*,*,#371,.T.);
#473=ORIENTED_EDGE('',*,*,#375,.F.);
#474=ORIENTED_EDGE('',*,*,#376,.F.);
#475=ORIENTED_EDGE('',*,*,#377,.T.);
#476=ORIENTED_EDGE('',*,*,#368,.T.);
#477=ORIENTED_EDGE('',*,*,#377,.F.);
#478=ORIENTED_EDGE('',*,*,#378,.F.);
#479=ORIENTED_EDGE('',*,*,#379,.T.);
#480=ORIENTED_EDGE('',*,*,#380,.F.);
#481=ORIENTED_EDGE('',*,*,#381,.F.);
#482=ORIENTED_EDGE('',*,*,#382,.F.);
#483=ORIENTED_EDGE('',*,*,#381,.T.);
#484=ORIENTED_EDGE('',*,*,#383,.F.);
#485=ORIENTED_EDGE('',*,*,#384,.F.);
#486=ORIENTED_EDGE('',*,*,#385,.F.);
#487=ORIENTED_EDGE('',*,*,#384,.T.);
#488=ORIENTED_EDGE('',*,*,#386,.F.);
#489=ORIENTED_EDGE('',*,*,#387,.F.);
#490=ORIENTED_EDGE('',*,*,#388,.F.);
#491=ORIENTED_EDGE('',*,*,#387,.T.);
#492=ORIENTED_EDGE('',*,*,#389,.F.);
#493=ORIENTED_EDGE('',*,*,#379,.F.);
#494=ORIENTED_EDGE('',*,*,#389,.T.);
#495=ORIENTED_EDGE('',*,*,#386,.T.);
#496=ORIENTED_EDGE('',*,*,#383,.T.);
#497=ORIENTED_EDGE('',*,*,#380,.T.);
#498=ORIENTED_EDGE('',*,*,#376,.T.);
#499=ORIENTED_EDGE('',*,*,#390,.T.);
#500=ORIENTED_EDGE('',*,*,#374,.T.);
#501=ORIENTED_EDGE('',*,*,#390,.F.);
#502=ORIENTED_EDGE('',*,*,#391,.T.);
#503=ORIENTED_EDGE('',*,*,#392,.F.);
#504=ORIENTED_EDGE('',*,*,#391,.F.);
#505=ORIENTED_EDGE('',*,*,#393,.F.);
#506=ORIENTED_EDGE('',*,*,#394,.F.);
#507=ORIENTED_EDGE('',*,*,#395,.F.);
#508=ORIENTED_EDGE('',*,*,#396,.F.);
#509=ORIENTED_EDGE('',*,*,#397,.F.);
#510=ORIENTED_EDGE('',*,*,#398,.T.);
#511=ORIENTED_EDGE('',*,*,#399,.T.);
#512=ORIENTED_EDGE('',*,*,#400,.T.);
#513=ORIENTED_EDGE('',*,*,#401,.F.);
#514=ORIENTED_EDGE('',*,*,#402,.F.);
#515=ORIENTED_EDGE('',*,*,#403,.T.);
#516=ORIENTED_EDGE('',*,*,#398,.F.);
#517=ORIENTED_EDGE('',*,*,#404,.F.);
#518=ORIENTED_EDGE('',*,*,#400,.F.);
#519=ORIENTED_EDGE('',*,*,#405,.T.);
#520=ORIENTED_EDGE('',*,*,#406,.F.);
#521=ORIENTED_EDGE('',*,*,#407,.F.);
#522=ORIENTED_EDGE('',*,*,#408,.T.);
#523=ORIENTED_EDGE('',*,*,#409,.F.);
#524=ORIENTED_EDGE('',*,*,#410,.T.);
#525=ORIENTED_EDGE('',*,*,#411,.F.);
#526=ORIENTED_EDGE('',*,*,#412,.T.);
#527=ORIENTED_EDGE('',*,*,#408,.F.);
#528=ORIENTED_EDGE('',*,*,#413,.T.);
#529=ORIENTED_EDGE('',*,*,#414,.T.);
#530=ORIENTED_EDGE('',*,*,#413,.F.);
#531=ORIENTED_EDGE('',*,*,#410,.F.);
#532=ORIENTED_EDGE('',*,*,#415,.T.);
#533=ORIENTED_EDGE('',*,*,#416,.T.);
#534=ORIENTED_EDGE('',*,*,#415,.F.);
#535=ORIENTED_EDGE('',*,*,#412,.F.);
#536=ORIENTED_EDGE('',*,*,#417,.T.);
#537=ORIENTED_EDGE('',*,*,#418,.T.);
#538=ORIENTED_EDGE('',*,*,#417,.F.);
#539=ORIENTED_EDGE('',*,*,#411,.T.);
#540=ORIENTED_EDGE('',*,*,#419,.T.);
#541=ORIENTED_EDGE('',*,*,#420,.T.);
#542=ORIENTED_EDGE('',*,*,#419,.F.);
#543=ORIENTED_EDGE('',*,*,#407,.T.);
#544=ORIENTED_EDGE('',*,*,#421,.T.);
#545=ORIENTED_EDGE('',*,*,#422,.T.);
#546=ORIENTED_EDGE('',*,*,#421,.F.);
#547=ORIENTED_EDGE('',*,*,#405,.F.);
#548=ORIENTED_EDGE('',*,*,#399,.F.);
#549=ORIENTED_EDGE('',*,*,#403,.F.);
#550=ORIENTED_EDGE('',*,*,#423,.F.);
#551=ORIENTED_EDGE('',*,*,#424,.F.);
#552=ORIENTED_EDGE('',*,*,#420,.F.);
#553=ORIENTED_EDGE('',*,*,#422,.F.);
#554=ORIENTED_EDGE('',*,*,#378,.T.);
#555=ORIENTED_EDGE('',*,*,#382,.T.);
#556=ORIENTED_EDGE('',*,*,#385,.T.);
#557=ORIENTED_EDGE('',*,*,#388,.T.);
#558=ORIENTED_EDGE('',*,*,#409,.T.);
#559=ORIENTED_EDGE('',*,*,#425,.T.);
#560=ORIENTED_EDGE('',*,*,#424,.T.);
#561=ORIENTED_EDGE('',*,*,#425,.F.);
#562=ORIENTED_EDGE('',*,*,#426,.F.);
#563=ORIENTED_EDGE('',*,*,#427,.T.);
#564=ORIENTED_EDGE('',*,*,#428,.F.);
#565=ORIENTED_EDGE('',*,*,#429,.F.);
#566=ORIENTED_EDGE('',*,*,#427,.F.);
#567=ORIENTED_EDGE('',*,*,#428,.T.);
#568=ORIENTED_EDGE('',*,*,#429,.T.);
#569=ORIENTED_EDGE('',*,*,#430,.T.);
#570=ORIENTED_EDGE('',*,*,#418,.F.);
#571=ORIENTED_EDGE('',*,*,#430,.F.);
#572=ORIENTED_EDGE('',*,*,#431,.F.);
#573=ORIENTED_EDGE('',*,*,#432,.T.);
#574=ORIENTED_EDGE('',*,*,#433,.F.);
#575=ORIENTED_EDGE('',*,*,#434,.F.);
#576=ORIENTED_EDGE('',*,*,#432,.F.);
#577=ORIENTED_EDGE('',*,*,#433,.T.);
#578=ORIENTED_EDGE('',*,*,#434,.T.);
#579=ORIENTED_EDGE('',*,*,#435,.T.);
#580=ORIENTED_EDGE('',*,*,#414,.F.);
#581=ORIENTED_EDGE('',*,*,#435,.F.);
#582=ORIENTED_EDGE('',*,*,#436,.F.);
#583=ORIENTED_EDGE('',*,*,#437,.T.);
#584=ORIENTED_EDGE('',*,*,#438,.F.);
#585=ORIENTED_EDGE('',*,*,#439,.F.);
#586=ORIENTED_EDGE('',*,*,#437,.F.);
#587=ORIENTED_EDGE('',*,*,#438,.T.);
#588=ORIENTED_EDGE('',*,*,#439,.T.);
#589=ORIENTED_EDGE('',*,*,#440,.T.);
#590=ORIENTED_EDGE('',*,*,#416,.F.);
#591=ORIENTED_EDGE('',*,*,#440,.F.);
#592=ORIENTED_EDGE('',*,*,#441,.T.);
#593=ORIENTED_EDGE('',*,*,#442,.T.);
#594=ORIENTED_EDGE('',*,*,#443,.T.);
#595=ORIENTED_EDGE('',*,*,#396,.T.);
#596=ORIENTED_EDGE('',*,*,#444,.F.);
#597=ORIENTED_EDGE('',*,*,#442,.F.);
#598=ORIENTED_EDGE('',*,*,#445,.F.);
#599=ORIENTED_EDGE('',*,*,#446,.F.);
#600=ORIENTED_EDGE('',*,*,#447,.F.);
#601=ORIENTED_EDGE('',*,*,#448,.T.);
#602=ORIENTED_EDGE('',*,*,#449,.F.);
#603=ORIENTED_EDGE('',*,*,#450,.T.);
#604=ORIENTED_EDGE('',*,*,#451,.F.);
#605=ORIENTED_EDGE('',*,*,#445,.T.);
#606=ORIENTED_EDGE('',*,*,#441,.F.);
#607=ORIENTED_EDGE('',*,*,#395,.T.);
#608=ORIENTED_EDGE('',*,*,#431,.T.);
#609=ORIENTED_EDGE('',*,*,#436,.T.);
#610=ORIENTED_EDGE('',*,*,#426,.T.);
#611=ORIENTED_EDGE('',*,*,#392,.T.);
#612=ORIENTED_EDGE('',*,*,#373,.T.);
#613=ORIENTED_EDGE('',*,*,#370,.T.);
#614=ORIENTED_EDGE('',*,*,#452,.F.);
#615=ORIENTED_EDGE('',*,*,#453,.T.);
#616=ORIENTED_EDGE('',*,*,#447,.T.);
#617=ORIENTED_EDGE('',*,*,#394,.T.);
#618=ORIENTED_EDGE('',*,*,#454,.T.);
#619=ORIENTED_EDGE('',*,*,#455,.T.);
#620=ORIENTED_EDGE('',*,*,#456,.T.);
#621=ORIENTED_EDGE('',*,*,#452,.T.);
#622=ORIENTED_EDGE('',*,*,#393,.T.);
#623=ORIENTED_EDGE('',*,*,#443,.F.);
#624=ORIENTED_EDGE('',*,*,#444,.T.);
#625=ORIENTED_EDGE('',*,*,#457,.T.);
#626=ORIENTED_EDGE('',*,*,#397,.T.);
#627=ORIENTED_EDGE('',*,*,#404,.T.);
#628=ORIENTED_EDGE('',*,*,#458,.T.);
#629=ORIENTED_EDGE('',*,*,#401,.T.);
#630=ORIENTED_EDGE('',*,*,#457,.F.);
#631=ORIENTED_EDGE('',*,*,#446,.T.);
#632=ORIENTED_EDGE('',*,*,#451,.T.);
#633=ORIENTED_EDGE('',*,*,#459,.T.);
#634=ORIENTED_EDGE('',*,*,#454,.F.);
#635=ORIENTED_EDGE('',*,*,#459,.F.);
#636=ORIENTED_EDGE('',*,*,#450,.F.);
#637=ORIENTED_EDGE('',*,*,#460,.F.);
#638=ORIENTED_EDGE('',*,*,#455,.F.);
#639=ORIENTED_EDGE('',*,*,#460,.T.);
#640=ORIENTED_EDGE('',*,*,#449,.T.);
#641=ORIENTED_EDGE('',*,*,#461,.T.);
#642=ORIENTED_EDGE('',*,*,#458,.F.);
#643=ORIENTED_EDGE('',*,*,#406,.T.);
#644=ORIENTED_EDGE('',*,*,#423,.T.);
#645=ORIENTED_EDGE('',*,*,#402,.T.);
#646=ORIENTED_EDGE('',*,*,#456,.F.);
#647=ORIENTED_EDGE('',*,*,#461,.F.);
#648=ORIENTED_EDGE('',*,*,#448,.F.);
#649=ORIENTED_EDGE('',*,*,#453,.F.);
#650=(
BOUNDED_SURFACE()
B_SPLINE_SURFACE(2,2,((#1001,#1002,#1003,#1004,#1005,#1006,#1007,#1008,
#1009),(#1010,#1011,#1012,#1013,#1014,#1015,#1016,#1017,#1018),(#1019,#1020,
#1021,#1022,#1023,#1024,#1025,#1026,#1027)),.UNSPECIFIED.,.F.,.T.,.F.)
B_SPLINE_SURFACE_WITH_KNOTS((3,3),(3,2,2,2,3),(0.090132063000256,1.09736727042129),
(-3.14159265358979,-1.5707963267949,0.,1.5707963267949,3.14159265358979),
 .UNSPECIFIED.)
GEOMETRIC_REPRESENTATION_ITEM()
RATIONAL_B_SPLINE_SURFACE(((1.,0.707106781186548,1.,0.707106781186548,1.,
0.707106781186548,1.,0.707106781186548,1.),(0.87584245158589,0.619314136767434,
0.87584245158589,0.619314136767434,0.87584245158589,0.619314136767434,0.87584245158589,
0.619314136767434,0.87584245158589),(1.,0.707106781186548,1.,0.707106781186548,
1.,0.707106781186548,1.,0.707106781186548,1.)))
REPRESENTATION_ITEM('')
SURFACE()
);
#651=(
BOUNDED_SURFACE()
B_SPLINE_SURFACE(2,2,((#1033,#1034,#1035,#1036,#1037,#1038,#1039,#1040,
#1041),(#1042,#1043,#1044,#1045,#1046,#1047,#1048,#1049,#1050),(#1051,#1052,
#1053,#1054,#1055,#1056,#1057,#1058,#1059)),.UNSPECIFIED.,.F.,.T.,.F.)
B_SPLINE_SURFACE_WITH_KNOTS((3,3),(3,2,2,2,3),(0.0901320630002561,1.09736727042129),
(-3.14159265358979,-1.5707963267949,0.,1.5707963267949,3.14159265358979),
 .UNSPECIFIED.)
GEOMETRIC_REPRESENTATION_ITEM()
RATIONAL_B_SPLINE_SURFACE(((1.,0.707106781186548,1.,0.707106781186548,1.,
0.707106781186548,1.,0.707106781186548,1.),(0.875842451585922,0.619314136767456,
0.875842451585922,0.619314136767456,0.875842451585922,0.619314136767456,
0.875842451585922,0.619314136767456,0.875842451585922),(1.,0.707106781186548,
1.,0.707106781186548,1.,0.707106781186548,1.,0.707106781186548,1.)))
REPRESENTATION_ITEM('')
SURFACE()
);
#652=(
BOUNDED_SURFACE()
B_SPLINE_SURFACE(2,2,((#1183,#1184,#1185,#1186,#1187,#1188,#1189,#1190,
#1191),(#1192,#1193,#1194,#1195,#1196,#1197,#1198,#1199,#1200),(#1201,#1202,
#1203,#1204,#1205,#1206,#1207,#1208,#1209)),.UNSPECIFIED.,.F.,.T.,.F.)
B_SPLINE_SURFACE_WITH_KNOTS((3,3),(3,2,2,2,3),(-1.49572583571818,0.),(-3.14159265358979,
-1.5707963267949,0.,1.5707963267949,3.14159265358979),.UNSPECIFIED.)
GEOMETRIC_REPRESENTATION_ITEM()
RATIONAL_B_SPLINE_SURFACE(((1.,0.707106781186548,1.,0.707106781186548,1.,
0.707106781186548,1.,0.707106781186548,1.),(0.733143914930771,0.518411033833201,
0.733143914930771,0.518411033833201,0.733143914930771,0.518411033833201,
0.733143914930771,0.518411033833201,0.733143914930771),(1.,0.707106781186548,
1.,0.707106781186548,1.,0.707106781186548,1.,0.707106781186548,1.)))
REPRESENTATION_ITEM('')
SURFACE()
);
#653=(
BOUNDED_SURFACE()
B_SPLINE_SURFACE(2,2,((#1219,#1220,#1221,#1222,#1223,#1224,#1225,#1226,
#1227),(#1228,#1229,#1230,#1231,#1232,#1233,#1234,#1235,#1236),(#1237,#1238,
#1239,#1240,#1241,#1242,#1243,#1244,#1245)),.UNSPECIFIED.,.F.,.T.,.F.)
B_SPLINE_SURFACE_WITH_KNOTS((3,3),(3,2,2,2,3),(-1.49572583571818,0.),(-3.14159265358979,
-1.5707963267949,0.,1.5707963267949,3.14159265358979),.UNSPECIFIED.)
GEOMETRIC_REPRESENTATION_ITEM()
RATIONAL_B_SPLINE_SURFACE(((1.,0.707106781186548,1.,0.707106781186548,1.,
0.707106781186548,1.,0.707106781186548,1.),(0.733143914930764,0.518411033833196,
0.733143914930764,0.518411033833196,0.733143914930764,0.518411033833196,
0.733143914930764,0.518411033833196,0.733143914930764),(1.,0.707106781186548,
1.,0.707106781186548,1.,0.707106781186548,1.,0.707106781186548,1.)))
REPRESENTATION_ITEM('')
SURFACE()
);
#654=(
BOUNDED_SURFACE()
B_SPLINE_SURFACE(2,2,((#1255,#1256,#1257,#1258,#1259,#1260,#1261,#1262,
#1263),(#1264,#1265,#1266,#1267,#1268,#1269,#1270,#1271,#1272),(#1273,#1274,
#1275,#1276,#1277,#1278,#1279,#1280,#1281)),.UNSPECIFIED.,.F.,.T.,.F.)
B_SPLINE_SURFACE_WITH_KNOTS((3,3),(3,2,2,2,3),(-1.49572583571818,0.),(-3.14159265358979,
-1.5707963267949,0.,1.5707963267949,3.14159265358979),.UNSPECIFIED.)
GEOMETRIC_REPRESENTATION_ITEM()
RATIONAL_B_SPLINE_SURFACE(((1.,0.707106781186548,1.,0.707106781186548,1.,
0.707106781186548,1.,0.707106781186548,1.),(0.733143914930771,0.518411033833201,
0.733143914930771,0.518411033833201,0.733143914930771,0.518411033833201,
0.733143914930771,0.518411033833201,0.733143914930771),(1.,0.707106781186548,
1.,0.707106781186548,1.,0.707106781186548,1.,0.707106781186548,1.)))
REPRESENTATION_ITEM('')
SURFACE()
);
#655=ADVANCED_FACE('',(#165),#650,.T.);
#656=ADVANCED_FACE('',(#166),#651,.T.);
#657=ADVANCED_FACE('',(#167),#152,.F.);
#658=ADVANCED_FACE('',(#168),#153,.F.);
#659=ADVANCED_FACE('',(#169),#35,.T.);
#660=ADVANCED_FACE('',(#170),#36,.T.);
#661=ADVANCED_FACE('',(#171),#37,.T.);
#662=ADVANCED_FACE('',(#172),#38,.T.);
#663=ADVANCED_FACE('',(#173,#18,#19,#20),#39,.T.);
#664=ADVANCED_FACE('',(#174),#154,.F.);
#665=ADVANCED_FACE('',(#175),#40,.T.);
#666=ADVANCED_FACE('',(#176),#41,.T.);
#667=ADVANCED_FACE('',(#177),#42,.T.);
#668=ADVANCED_FACE('',(#178),#43,.T.);
#669=ADVANCED_FACE('',(#179,#21),#44,.T.);
#670=ADVANCED_FACE('',(#180,#22),#45,.T.);
#671=ADVANCED_FACE('',(#181,#23),#46,.T.);
#672=ADVANCED_FACE('',(#182),#155,.F.);
#673=ADVANCED_FACE('',(#183),#156,.F.);
#674=ADVANCED_FACE('',(#184),#157,.F.);
#675=ADVANCED_FACE('',(#185),#15,.F.);
#676=ADVANCED_FACE('',(#186),#16,.F.);
#677=ADVANCED_FACE('',(#187,#24,#25,#26,#27),#47,.F.);
#678=ADVANCED_FACE('',(#188),#17,.F.);
#679=ADVANCED_FACE('',(#189),#158,.F.);
#680=ADVANCED_FACE('',(#190),#652,.T.);
#681=ADVANCED_FACE('',(#191),#159,.F.);
#682=ADVANCED_FACE('',(#192),#653,.T.);
#683=ADVANCED_FACE('',(#193),#160,.F.);
#684=ADVANCED_FACE('',(#194),#654,.T.);
#685=ADVANCED_FACE('',(#195),#161,.T.);
#686=ADVANCED_FACE('',(#196),#48,.T.);
#687=ADVANCED_FACE('',(#197,#28,#29,#30,#31,#32,#33),#49,.T.);
#688=ADVANCED_FACE('',(#198),#162,.T.);
#689=ADVANCED_FACE('',(#199,#34),#50,.T.);
#690=ADVANCED_FACE('',(#200),#163,.T.);
#691=ADVANCED_FACE('',(#201),#51,.T.);
#692=ADVANCED_FACE('',(#202),#164,.T.);
#693=ADVANCED_FACE('',(#203),#52,.T.);
#694=ADVANCED_FACE('',(#204),#53,.T.);
#695=CLOSED_SHELL('',(#655,#656,#657,#658,#659,#660,#661,#662,#663,#664,
#665,#666,#667,#668,#669,#670,#671,#672,#673,#674,#675,#676,#677,#678,#679,
#680,#681,#682,#683,#684,#685,#686,#687,#688,#689,#690,#691,#692,#693,#694));
#696=DERIVED_UNIT_ELEMENT(#698,1.);
#697=DERIVED_UNIT_ELEMENT(#1331,-3.);
#698=(
MASS_UNIT()
NAMED_UNIT(*)
SI_UNIT(.KILO.,.GRAM.)
);
#699=DERIVED_UNIT((#696,#697));
#700=MEASURE_REPRESENTATION_ITEM('density measure',
POSITIVE_RATIO_MEASURE(7850.),#699);
#701=PROPERTY_DEFINITION_REPRESENTATION(#706,#703);
#702=PROPERTY_DEFINITION_REPRESENTATION(#707,#704);
#703=REPRESENTATION('material name',(#705),#1328);
#704=REPRESENTATION('density',(#700),#1328);
#705=DESCRIPTIVE_REPRESENTATION_ITEM('\X\C7elik','\X\C7elik');
#706=PROPERTY_DEFINITION('material property','material name',#1338);
#707=PROPERTY_DEFINITION('material property','density of part',#1338);
#708=AXIS2_PLACEMENT_3D('',#1000,#789,#790);
#709=AXIS2_PLACEMENT_3D('',#1029,#791,#792);
#710=AXIS2_PLACEMENT_3D('',#1031,#793,#794);
#711=AXIS2_PLACEMENT_3D('',#1032,#795,#796);
#712=AXIS2_PLACEMENT_3D('',#1061,#797,#798);
#713=AXIS2_PLACEMENT_3D('',#1063,#799,#800);
#714=AXIS2_PLACEMENT_3D('',#1064,#801,#802);
#715=AXIS2_PLACEMENT_3D('',#1065,#803,#804);
#716=AXIS2_PLACEMENT_3D('',#1067,#805,#806);
#717=AXIS2_PLACEMENT_3D('',#1069,#808,#809);
#718=AXIS2_PLACEMENT_3D('',#1071,#810,#811);
#719=AXIS2_PLACEMENT_3D('',#1073,#813,#814);
#720=AXIS2_PLACEMENT_3D('',#1082,#819,#820);
#721=AXIS2_PLACEMENT_3D('',#1088,#824,#825);
#722=AXIS2_PLACEMENT_3D('',#1094,#829,#830);
#723=AXIS2_PLACEMENT_3D('',#1097,#833,#834);
#724=AXIS2_PLACEMENT_3D('',#1099,#835,#836);
#725=AXIS2_PLACEMENT_3D('',#1100,#837,#838);
#726=AXIS2_PLACEMENT_3D('',#1103,#840,#841);
#727=AXIS2_PLACEMENT_3D('',#1104,#842,#843);
#728=AXIS2_PLACEMENT_3D('',#1113,#848,#849);
#729=AXIS2_PLACEMENT_3D('',#1122,#854,#855);
#730=AXIS2_PLACEMENT_3D('',#1128,#859,#860);
#731=AXIS2_PLACEMENT_3D('',#1134,#864,#865);
#732=AXIS2_PLACEMENT_3D('',#1136,#866,#867);
#733=AXIS2_PLACEMENT_3D('',#1138,#868,#869);
#734=AXIS2_PLACEMENT_3D('',#1139,#870,#871);
#735=AXIS2_PLACEMENT_3D('',#1141,#872,#873);
#736=AXIS2_PLACEMENT_3D('',#1143,#874,#875);
#737=AXIS2_PLACEMENT_3D('',#1144,#876,#877);
#738=AXIS2_PLACEMENT_3D('',#1146,#878,#879);
#739=AXIS2_PLACEMENT_3D('',#1148,#880,#881);
#740=AXIS2_PLACEMENT_3D('',#1149,#882,#883);
#741=AXIS2_PLACEMENT_3D('',#1152,#885,#886);
#742=AXIS2_PLACEMENT_3D('',#1153,#887,#888);
#743=AXIS2_PLACEMENT_3D('',#1156,#890,#891);
#744=AXIS2_PLACEMENT_3D('',#1157,#892,#893);
#745=AXIS2_PLACEMENT_3D('',#1160,#895,#896);
#746=AXIS2_PLACEMENT_3D('',#1161,#897,#898);
#747=AXIS2_PLACEMENT_3D('',#1163,#899,#900);
#748=AXIS2_PLACEMENT_3D('',#1164,#901,#902);
#749=AXIS2_PLACEMENT_3D('',#1165,#903,#904);
#750=AXIS2_PLACEMENT_3D('',#1167,#905,#906);
#751=AXIS2_PLACEMENT_3D('',#1168,#907,#908);
#752=AXIS2_PLACEMENT_3D('',#1169,#909,#910);
#753=AXIS2_PLACEMENT_3D('',#1172,#912,#913);
#754=AXIS2_PLACEMENT_3D('',#1173,#914,#915);
#755=AXIS2_PLACEMENT_3D('',#1174,#916,#917);
#756=AXIS2_PLACEMENT_3D('',#1175,#918,#919);
#757=AXIS2_PLACEMENT_3D('',#1177,#920,#921);
#758=AXIS2_PLACEMENT_3D('',#1181,#923,#924);
#759=AXIS2_PLACEMENT_3D('',#1182,#925,#926);
#760=AXIS2_PLACEMENT_3D('',#1210,#927,#928);
#761=AXIS2_PLACEMENT_3D('',#1211,#929,#930);
#762=AXIS2_PLACEMENT_3D('',#1213,#931,#932);
#763=AXIS2_PLACEMENT_3D('',#1217,#934,#935);
#764=AXIS2_PLACEMENT_3D('',#1218,#936,#937);
#765=AXIS2_PLACEMENT_3D('',#1246,#938,#939);
#766=AXIS2_PLACEMENT_3D('',#1247,#940,#941);
#767=AXIS2_PLACEMENT_3D('',#1249,#942,#943);
#768=AXIS2_PLACEMENT_3D('',#1253,#945,#946);
#769=AXIS2_PLACEMENT_3D('',#1254,#947,#948);
#770=AXIS2_PLACEMENT_3D('',#1282,#949,#950);
#771=AXIS2_PLACEMENT_3D('',#1283,#951,#952);
#772=AXIS2_PLACEMENT_3D('',#1285,#953,#954);
#773=AXIS2_PLACEMENT_3D('',#1288,#956,#957);
#774=AXIS2_PLACEMENT_3D('',#1289,#958,#959);
#775=AXIS2_PLACEMENT_3D('',#1295,#963,#964);
#776=AXIS2_PLACEMENT_3D('',#1297,#965,#966);
#777=AXIS2_PLACEMENT_3D('',#1301,#968,#969);
#778=AXIS2_PLACEMENT_3D('',#1304,#971,#972);
#779=AXIS2_PLACEMENT_3D('',#1305,#973,#974);
#780=AXIS2_PLACEMENT_3D('',#1307,#975,#976);
#781=AXIS2_PLACEMENT_3D('',#1309,#978,#979);
#782=AXIS2_PLACEMENT_3D('',#1314,#981,#982);
#783=AXIS2_PLACEMENT_3D('',#1316,#984,#985);
#784=AXIS2_PLACEMENT_3D('',#1318,#987,#988);
#785=AXIS2_PLACEMENT_3D('',#1320,#990,#991);
#786=AXIS2_PLACEMENT_3D('',#1322,#993,#994);
#787=AXIS2_PLACEMENT_3D('',#1324,#996,#997);
#788=AXIS2_PLACEMENT_3D('',#1325,#998,#999);
#789=DIRECTION('axis',(0.,0.,1.));
#790=DIRECTION('refdir',(1.,0.,0.));
#791=DIRECTION('center_axis',(0.,0.,-1.));
#792=DIRECTION('ref_axis',(-1.,0.,0.));
#793=DIRECTION('center_axis',(0.,1.,0.));
#794=DIRECTION('ref_axis',(1.,0.,0.));
#795=DIRECTION('center_axis',(0.,0.,1.));
#796=DIRECTION('ref_axis',(1.,0.,0.));
#797=DIRECTION('center_axis',(0.,0.,-1.));
#798=DIRECTION('ref_axis',(-1.,0.,0.));
#799=DIRECTION('center_axis',(0.,1.,0.));
#800=DIRECTION('ref_axis',(1.,0.,0.));
#801=DIRECTION('center_axis',(0.,0.,1.));
#802=DIRECTION('ref_axis',(1.,0.,0.));
#803=DIRECTION('center_axis',(0.,0.,1.));
#804=DIRECTION('ref_axis',(-1.,0.,0.));
#805=DIRECTION('center_axis',(0.,0.,-1.));
#806=DIRECTION('ref_axis',(-1.,0.,0.));
#807=DIRECTION('',(0.,0.,-1.));
#808=DIRECTION('center_axis',(0.,0.,1.));
#809=DIRECTION('ref_axis',(-1.,0.,0.));
#810=DIRECTION('center_axis',(0.,0.,-1.));
#811=DIRECTION('ref_axis',(-1.,0.,0.));
#812=DIRECTION('',(0.,0.,-1.));
#813=DIRECTION('center_axis',(0.,1.,0.));
#814=DIRECTION('ref_axis',(-1.,0.,0.));
#815=DIRECTION('',(1.,0.,0.));
#816=DIRECTION('',(0.,0.,1.));
#817=DIRECTION('',(-1.,0.,0.));
#818=DIRECTION('',(0.,0.,1.));
#819=DIRECTION('center_axis',(1.,0.,0.));
#820=DIRECTION('ref_axis',(0.,1.,0.));
#821=DIRECTION('',(0.,-1.,0.));
#822=DIRECTION('',(0.,1.,0.));
#823=DIRECTION('',(0.,0.,1.));
#824=DIRECTION('center_axis',(0.,-1.,0.));
#825=DIRECTION('ref_axis',(1.,0.,0.));
#826=DIRECTION('',(-1.,0.,0.));
#827=DIRECTION('',(1.,0.,0.));
#828=DIRECTION('',(0.,0.,1.));
#829=DIRECTION('center_axis',(-1.,0.,0.));
#830=DIRECTION('ref_axis',(0.,-1.,0.));
#831=DIRECTION('',(0.,1.,0.));
#832=DIRECTION('',(0.,-1.,0.));
#833=DIRECTION('center_axis',(0.,0.,1.));
#834=DIRECTION('ref_axis',(-1.,0.,0.));
#835=DIRECTION('center_axis',(0.,0.,-1.));
#836=DIRECTION('ref_axis',(-1.,0.,0.));
#837=DIRECTION('center_axis',(0.,0.,-1.));
#838=DIRECTION('ref_axis',(-1.,0.,0.));
#839=DIRECTION('',(0.,0.,-1.));
#840=DIRECTION('center_axis',(0.,0.,1.));
#841=DIRECTION('ref_axis',(-1.,0.,0.));
#842=DIRECTION('center_axis',(1.,0.,0.));
#843=DIRECTION('ref_axis',(0.,-1.,0.));
#844=DIRECTION('',(0.,1.,0.));
#845=DIRECTION('',(0.,0.,1.));
#846=DIRECTION('',(0.,-1.,0.));
#847=DIRECTION('',(0.,0.,-1.));
#848=DIRECTION('center_axis',(1.,0.,0.));
#849=DIRECTION('ref_axis',(0.,-1.,0.));
#850=DIRECTION('',(0.,1.,0.));
#851=DIRECTION('',(0.,0.,-1.));
#852=DIRECTION('',(0.,1.,0.));
#853=DIRECTION('',(0.,0.,1.));
#854=DIRECTION('center_axis',(0.,1.,0.));
#855=DIRECTION('ref_axis',(1.,0.,0.));
#856=DIRECTION('',(-1.,0.,0.));
#857=DIRECTION('',(0.,0.,1.));
#858=DIRECTION('',(-1.,0.,0.));
#859=DIRECTION('center_axis',(0.,-1.,0.));
#860=DIRECTION('ref_axis',(-1.,0.,0.));
#861=DIRECTION('',(1.,0.,0.));
#862=DIRECTION('',(1.,0.,0.));
#863=DIRECTION('',(0.,0.,-1.));
#864=DIRECTION('center_axis',(0.,0.,1.));
#865=DIRECTION('ref_axis',(-1.,0.,0.));
#866=DIRECTION('center_axis',(0.,0.,-1.));
#867=DIRECTION('ref_axis',(-1.,0.,0.));
#868=DIRECTION('center_axis',(0.,0.,-1.));
#869=DIRECTION('ref_axis',(-1.,0.,0.));
#870=DIRECTION('center_axis',(0.,0.,1.));
#871=DIRECTION('ref_axis',(-1.,0.,0.));
#872=DIRECTION('center_axis',(0.,0.,-1.));
#873=DIRECTION('ref_axis',(-1.,0.,0.));
#874=DIRECTION('center_axis',(0.,0.,-1.));
#875=DIRECTION('ref_axis',(-1.,0.,0.));
#876=DIRECTION('center_axis',(0.,0.,1.));
#877=DIRECTION('ref_axis',(-1.,0.,0.));
#878=DIRECTION('center_axis',(0.,0.,-1.));
#879=DIRECTION('ref_axis',(-1.,0.,0.));
#880=DIRECTION('center_axis',(0.,0.,-1.));
#881=DIRECTION('ref_axis',(-1.,0.,0.));
#882=DIRECTION('center_axis',(0.,0.,-1.));
#883=DIRECTION('ref_axis',(-1.,0.,0.));
#884=DIRECTION('',(0.,0.,-1.));
#885=DIRECTION('center_axis',(0.,0.,-1.));
#886=DIRECTION('ref_axis',(-1.,0.,0.));
#887=DIRECTION('center_axis',(0.,0.,-1.));
#888=DIRECTION('ref_axis',(-1.,0.,0.));
#889=DIRECTION('',(0.,0.,-1.));
#890=DIRECTION('center_axis',(0.,0.,-1.));
#891=DIRECTION('ref_axis',(-1.,0.,0.));
#892=DIRECTION('center_axis',(0.,0.,-1.));
#893=DIRECTION('ref_axis',(-1.,0.,0.));
#894=DIRECTION('',(0.,0.,-1.));
#895=DIRECTION('center_axis',(0.,0.,-1.));
#896=DIRECTION('ref_axis',(-1.,0.,0.));
#897=DIRECTION('center_axis',(0.,0.,-1.));
#898=DIRECTION('ref_axis',(-1.,0.,0.));
#899=DIRECTION('center_axis',(0.,-1.,0.));
#900=DIRECTION('ref_axis',(1.,0.,0.));
#901=DIRECTION('center_axis',(0.,0.,1.));
#902=DIRECTION('ref_axis',(-1.,0.,0.));
#903=DIRECTION('center_axis',(0.,0.,-1.));
#904=DIRECTION('ref_axis',(-1.,0.,0.));
#905=DIRECTION('center_axis',(0.,-1.,0.));
#906=DIRECTION('ref_axis',(1.,0.,0.));
#907=DIRECTION('center_axis',(0.,0.,1.));
#908=DIRECTION('ref_axis',(-1.,0.,0.));
#909=DIRECTION('center_axis',(0.,0.,-1.));
#910=DIRECTION('ref_axis',(-1.,0.,0.));
#911=DIRECTION('',(0.,-1.,0.));
#912=DIRECTION('center_axis',(0.,0.,1.));
#913=DIRECTION('ref_axis',(-1.,0.,0.));
#914=DIRECTION('center_axis',(0.,0.,-1.));
#915=DIRECTION('ref_axis',(-1.,0.,0.));
#916=DIRECTION('center_axis',(-8.34754153853502E-17,-1.,0.));
#917=DIRECTION('ref_axis',(1.,-8.34754153853502E-17,0.));
#918=DIRECTION('center_axis',(0.,0.,1.));
#919=DIRECTION('ref_axis',(1.,0.,0.));
#920=DIRECTION('center_axis',(0.,0.,1.));
#921=DIRECTION('ref_axis',(1.,0.,0.));
#922=DIRECTION('',(0.,0.,1.));
#923=DIRECTION('center_axis',(0.,0.,-1.));
#924=DIRECTION('ref_axis',(-1.,0.,0.));
#925=DIRECTION('center_axis',(0.,0.,-1.));
#926=DIRECTION('ref_axis',(-1.,0.,0.));
#927=DIRECTION('center_axis',(0.,-1.,0.));
#928=DIRECTION('ref_axis',(1.,0.,0.));
#929=DIRECTION('center_axis',(0.,0.,1.));
#930=DIRECTION('ref_axis',(1.,0.,0.));
#931=DIRECTION('center_axis',(0.,0.,1.));
#932=DIRECTION('ref_axis',(1.,0.,0.));
#933=DIRECTION('',(0.,0.,1.));
#934=DIRECTION('center_axis',(0.,0.,-1.));
#935=DIRECTION('ref_axis',(-1.,0.,0.));
#936=DIRECTION('center_axis',(0.,0.,-1.));
#937=DIRECTION('ref_axis',(-1.,0.,0.));
#938=DIRECTION('center_axis',(0.,-1.,0.));
#939=DIRECTION('ref_axis',(1.,0.,0.));
#940=DIRECTION('center_axis',(0.,0.,1.));
#941=DIRECTION('ref_axis',(1.,0.,0.));
#942=DIRECTION('center_axis',(0.,0.,1.));
#943=DIRECTION('ref_axis',(1.,0.,0.));
#944=DIRECTION('',(0.,0.,1.));
#945=DIRECTION('center_axis',(0.,0.,-1.));
#946=DIRECTION('ref_axis',(-1.,0.,0.));
#947=DIRECTION('center_axis',(0.,0.,-1.));
#948=DIRECTION('ref_axis',(-1.,0.,0.));
#949=DIRECTION('center_axis',(-1.58603289232165E-16,-1.,0.));
#950=DIRECTION('ref_axis',(1.,-1.58603289232165E-16,0.));
#951=DIRECTION('center_axis',(0.,0.,-1.));
#952=DIRECTION('ref_axis',(0.707106781186548,0.707106781186548,0.));
#953=DIRECTION('center_axis',(0.,0.,1.));
#954=DIRECTION('ref_axis',(0.707106781186548,0.707106781186548,0.));
#955=DIRECTION('',(0.,0.,1.));
#956=DIRECTION('center_axis',(0.,0.,-1.));
#957=DIRECTION('ref_axis',(0.707106781186548,0.707106781186548,0.));
#958=DIRECTION('center_axis',(0.,1.,0.));
#959=DIRECTION('ref_axis',(1.,0.,0.));
#960=DIRECTION('',(-1.,0.,0.));
#961=DIRECTION('',(1.,0.,0.));
#962=DIRECTION('',(0.,0.,-1.));
#963=DIRECTION('center_axis',(0.,0.,-1.));
#964=DIRECTION('ref_axis',(-1.,0.,0.));
#965=DIRECTION('center_axis',(0.,0.,1.));
#966=DIRECTION('ref_axis',(0.707106781186547,-0.707106781186548,0.));
#967=DIRECTION('',(-1.,0.,0.));
#968=DIRECTION('center_axis',(0.,0.,1.));
#969=DIRECTION('ref_axis',(-0.707106781186547,-0.707106781186548,0.));
#970=DIRECTION('',(0.,1.,0.));
#971=DIRECTION('center_axis',(0.,0.,1.));
#972=DIRECTION('ref_axis',(-0.707106781186549,0.707106781186546,0.));
#973=DIRECTION('center_axis',(0.,0.,-1.));
#974=DIRECTION('ref_axis',(0.707106781186547,-0.707106781186548,0.));
#975=DIRECTION('center_axis',(0.,0.,1.));
#976=DIRECTION('ref_axis',(0.707106781186547,-0.707106781186548,0.));
#977=DIRECTION('',(0.,0.,-1.));
#978=DIRECTION('center_axis',(0.,0.,1.));
#979=DIRECTION('ref_axis',(1.,0.,0.));
#980=DIRECTION('',(0.,-1.,0.));
#981=DIRECTION('center_axis',(0.,0.,1.));
#982=DIRECTION('ref_axis',(-0.707106781186547,-0.707106781186548,0.));
#983=DIRECTION('',(1.,0.,0.));
#984=DIRECTION('center_axis',(0.,0.,1.));
#985=DIRECTION('ref_axis',(-0.707106781186549,0.707106781186546,0.));
#986=DIRECTION('',(0.,-1.,0.));
#987=DIRECTION('center_axis',(0.,0.,-1.));
#988=DIRECTION('ref_axis',(-0.707106781186549,0.707106781186546,0.));
#989=DIRECTION('',(0.,0.,1.));
#990=DIRECTION('center_axis',(-1.,0.,0.));
#991=DIRECTION('ref_axis',(0.,1.,0.));
#992=DIRECTION('',(0.,0.,-1.));
#993=DIRECTION('center_axis',(0.,0.,-1.));
#994=DIRECTION('ref_axis',(-0.707106781186547,-0.707106781186548,0.));
#995=DIRECTION('',(0.,0.,1.));
#996=DIRECTION('center_axis',(-1.,0.,0.));
#997=DIRECTION('ref_axis',(0.,1.,0.));
#998=DIRECTION('center_axis',(0.,-1.,0.));
#999=DIRECTION('ref_axis',(-1.,0.,0.));
#1000=CARTESIAN_POINT('',(0.,0.,0.));
#1001=CARTESIAN_POINT('Ctrl Pts',(33.5000004470348,70.0000010430813,-27.6));
#1002=CARTESIAN_POINT('Ctrl Pts',(33.5000004470348,73.5000010430813,-27.6));
#1003=CARTESIAN_POINT('Ctrl Pts',(30.0000004470348,73.5000010430813,-27.6));
#1004=CARTESIAN_POINT('Ctrl Pts',(26.5000004470348,73.5000010430813,-27.6));
#1005=CARTESIAN_POINT('Ctrl Pts',(26.5000004470348,70.0000010430813,-27.6));
#1006=CARTESIAN_POINT('Ctrl Pts',(26.5000004470348,66.5000010430813,-27.6));
#1007=CARTESIAN_POINT('Ctrl Pts',(30.0000004470348,66.5000010430813,-27.6));
#1008=CARTESIAN_POINT('Ctrl Pts',(33.5000004470348,66.5000010430813,-27.6));
#1009=CARTESIAN_POINT('Ctrl Pts',(33.5000004470348,70.0000010430813,-27.6));
#1010=CARTESIAN_POINT('Ctrl Pts',(33.3760095236178,70.0000010430813,-26.2280688733065));
#1011=CARTESIAN_POINT('Ctrl Pts',(33.3760095236178,73.3760101196643,-26.2280688733065));
#1012=CARTESIAN_POINT('Ctrl Pts',(30.0000004470348,73.3760101196643,-26.2280688733065));
#1013=CARTESIAN_POINT('Ctrl Pts',(26.6239913704518,73.3760101196643,-26.2280688733065));
#1014=CARTESIAN_POINT('Ctrl Pts',(26.6239913704518,70.0000010430813,-26.2280688733065));
#1015=CARTESIAN_POINT('Ctrl Pts',(26.6239913704518,66.6239919664983,-26.2280688733065));
#1016=CARTESIAN_POINT('Ctrl Pts',(30.0000004470348,66.6239919664983,-26.2280688733065));
#1017=CARTESIAN_POINT('Ctrl Pts',(33.3760095236178,66.6239919664983,-26.2280688733065));
#1018=CARTESIAN_POINT('Ctrl Pts',(33.3760095236178,70.0000010430813,-26.2280688733065));
#1019=CARTESIAN_POINT('Ctrl Pts',(32.1500004470348,70.0000010430813,-25.6));
#1020=CARTESIAN_POINT('Ctrl Pts',(32.1500004470348,72.1500010430813,-25.6));
#1021=CARTESIAN_POINT('Ctrl Pts',(30.0000004470348,72.1500010430813,-25.6));
#1022=CARTESIAN_POINT('Ctrl Pts',(27.8500004470348,72.1500010430813,-25.6));
#1023=CARTESIAN_POINT('Ctrl Pts',(27.8500004470348,70.0000010430813,-25.6));
#1024=CARTESIAN_POINT('Ctrl Pts',(27.8500004470348,67.8500010430813,-25.6));
#1025=CARTESIAN_POINT('Ctrl Pts',(30.0000004470348,67.8500010430813,-25.6));
#1026=CARTESIAN_POINT('Ctrl Pts',(32.1500004470348,67.8500010430813,-25.6));
#1027=CARTESIAN_POINT('Ctrl Pts',(32.1500004470348,70.0000010430813,-25.6));
#1028=CARTESIAN_POINT('',(32.1500004470348,70.0000010430813,-25.6));
#1029=CARTESIAN_POINT('Origin',(30.0000004470348,70.0000010430813,-25.6));
#1030=CARTESIAN_POINT('',(33.5000004470348,70.0000010430813,-27.6));
#1031=CARTESIAN_POINT('Origin',(31.0101483102945,70.0000010430813,-27.8250251922997));
#1032=CARTESIAN_POINT('Origin',(30.0000004470348,70.0000010430813,-27.6));
#1033=CARTESIAN_POINT('Ctrl Pts',(73.5000010430813,30.0000004470348,-27.6));
#1034=CARTESIAN_POINT('Ctrl Pts',(73.5000010430813,33.5000004470348,-27.6));
#1035=CARTESIAN_POINT('Ctrl Pts',(70.0000010430813,33.5000004470348,-27.6));
#1036=CARTESIAN_POINT('Ctrl Pts',(66.5000010430813,33.5000004470348,-27.6));
#1037=CARTESIAN_POINT('Ctrl Pts',(66.5000010430813,30.0000004470348,-27.6));
#1038=CARTESIAN_POINT('Ctrl Pts',(66.5000010430813,26.5000004470348,-27.6));
#1039=CARTESIAN_POINT('Ctrl Pts',(70.0000010430813,26.5000004470348,-27.6));
#1040=CARTESIAN_POINT('Ctrl Pts',(73.5000010430813,26.5000004470348,-27.6));
#1041=CARTESIAN_POINT('Ctrl Pts',(73.5000010430813,30.0000004470348,-27.6));
#1042=CARTESIAN_POINT('Ctrl Pts',(73.3760101196643,30.0000004470348,-26.2280688733065));
#1043=CARTESIAN_POINT('Ctrl Pts',(73.3760101196643,33.3760095236179,-26.2280688733065));
#1044=CARTESIAN_POINT('Ctrl Pts',(70.0000010430813,33.3760095236179,-26.2280688733065));
#1045=CARTESIAN_POINT('Ctrl Pts',(66.6239919664983,33.3760095236179,-26.2280688733065));
#1046=CARTESIAN_POINT('Ctrl Pts',(66.6239919664983,30.0000004470348,-26.2280688733065));
#1047=CARTESIAN_POINT('Ctrl Pts',(66.6239919664983,26.6239913704518,-26.2280688733065));
#1048=CARTESIAN_POINT('Ctrl Pts',(70.0000010430813,26.6239913704518,-26.2280688733065));
#1049=CARTESIAN_POINT('Ctrl Pts',(73.3760101196643,26.6239913704518,-26.2280688733065));
#1050=CARTESIAN_POINT('Ctrl Pts',(73.3760101196643,30.0000004470348,-26.2280688733065));
#1051=CARTESIAN_POINT('Ctrl Pts',(72.1500010430813,30.0000004470348,-25.6));
#1052=CARTESIAN_POINT('Ctrl Pts',(72.1500010430813,32.1500004470348,-25.6));
#1053=CARTESIAN_POINT('Ctrl Pts',(70.0000010430813,32.1500004470348,-25.6));
#1054=CARTESIAN_POINT('Ctrl Pts',(67.8500010430813,32.1500004470348,-25.6));
#1055=CARTESIAN_POINT('Ctrl Pts',(67.8500010430813,30.0000004470348,-25.6));
#1056=CARTESIAN_POINT('Ctrl Pts',(67.8500010430813,27.8500004470348,-25.6));
#1057=CARTESIAN_POINT('Ctrl Pts',(70.0000010430813,27.8500004470348,-25.6));
#1058=CARTESIAN_POINT('Ctrl Pts',(72.1500010430813,27.8500004470348,-25.6));
#1059=CARTESIAN_POINT('Ctrl Pts',(72.1500010430813,30.0000004470348,-25.6));
#1060=CARTESIAN_POINT('',(72.1500010430813,30.0000004470348,-25.6));
#1061=CARTESIAN_POINT('Origin',(70.0000010430813,30.0000004470348,-25.6));
#1062=CARTESIAN_POINT('',(73.5000010430813,30.0000004470348,-27.6));
#1063=CARTESIAN_POINT('Origin',(71.0101489063409,30.0000004470348,-27.8250251922997));
#1064=CARTESIAN_POINT('Origin',(70.0000010430813,30.0000004470348,-27.6));
#1065=CARTESIAN_POINT('Origin',(70.0000010430813,30.0000004470348,-25.6));
#1066=CARTESIAN_POINT('',(72.1500010430813,30.0000004470348,-23.6));
#1067=CARTESIAN_POINT('Origin',(70.0000010430813,30.0000004470348,-23.6));
#1068=CARTESIAN_POINT('',(72.1500010430813,30.0000004470348,-25.6));
#1069=CARTESIAN_POINT('Origin',(30.0000004470348,70.0000010430813,-25.6));
#1070=CARTESIAN_POINT('',(32.1500004470348,70.0000010430813,-23.6));
#1071=CARTESIAN_POINT('Origin',(30.0000004470348,70.0000010430813,-23.6));
#1072=CARTESIAN_POINT('',(32.1500004470348,70.0000010430813,-25.6));
#1073=CARTESIAN_POINT('Origin',(75.0000007450581,75.0000007450581,-25.6));
#1074=CARTESIAN_POINT('',(25.0000007450581,75.0000007450581,-25.6));
#1075=CARTESIAN_POINT('',(75.0000007450581,75.0000007450581,-25.6));
#1076=CARTESIAN_POINT('',(62.5000003576279,75.0000007450581,-25.6));
#1077=CARTESIAN_POINT('',(25.0000007450581,75.0000007450581,-23.6));
#1078=CARTESIAN_POINT('',(25.0000007450581,75.0000007450581,-25.6));
#1079=CARTESIAN_POINT('',(75.0000007450581,75.0000007450581,-23.6));
#1080=CARTESIAN_POINT('',(75.0000007450581,75.0000007450581,-23.6));
#1081=CARTESIAN_POINT('',(75.0000007450581,75.0000007450581,-25.6));
#1082=CARTESIAN_POINT('Origin',(75.0000007450581,25.0000007450581,-25.6));
#1083=CARTESIAN_POINT('',(75.0000007450581,25.0000007450581,-25.6));
#1084=CARTESIAN_POINT('',(75.0000007450581,37.500000372529,-25.6));
#1085=CARTESIAN_POINT('',(75.0000007450581,25.0000007450581,-23.6));
#1086=CARTESIAN_POINT('',(75.0000007450581,25.0000007450581,-23.6));
#1087=CARTESIAN_POINT('',(75.0000007450581,25.0000007450581,-25.6));
#1088=CARTESIAN_POINT('Origin',(25.0000007450581,25.0000007450581,-25.6));
#1089=CARTESIAN_POINT('',(25.0000007450581,25.0000007450581,-25.6));
#1090=CARTESIAN_POINT('',(37.5000003576279,25.0000007450581,-25.6));
#1091=CARTESIAN_POINT('',(25.0000007450581,25.0000007450581,-23.6));
#1092=CARTESIAN_POINT('',(25.0000007450581,25.0000007450581,-23.6));
#1093=CARTESIAN_POINT('',(25.0000007450581,25.0000007450581,-25.6));
#1094=CARTESIAN_POINT('Origin',(25.0000007450581,75.0000007450581,-25.6));
#1095=CARTESIAN_POINT('',(25.0000007450581,62.500000372529,-25.6));
#1096=CARTESIAN_POINT('',(25.0000007450581,75.0000007450581,-23.6));
#1097=CARTESIAN_POINT('Origin',(50.0000007450581,50.0000007450581,-23.6));
#1098=CARTESIAN_POINT('',(72.5000007450581,50.0000007450581,-23.6));
#1099=CARTESIAN_POINT('Origin',(50.0000007450581,50.0000007450581,-23.6));
#1100=CARTESIAN_POINT('Origin',(50.0000007450581,50.0000007450581,-25.6));
#1101=CARTESIAN_POINT('',(72.5000007450581,50.0000007450581,-27.6));
#1102=CARTESIAN_POINT('',(72.5000007450581,50.0000007450581,-25.6));
#1103=CARTESIAN_POINT('Origin',(50.0000007450581,50.0000007450581,-27.6));
#1104=CARTESIAN_POINT('Origin',(103.999999970198,104.,0.));
#1105=CARTESIAN_POINT('',(103.999999970198,-2.,0.));
#1106=CARTESIAN_POINT('',(103.999999970198,102.,0.));
#1107=CARTESIAN_POINT('',(103.999999970198,76.7481895273854,0.));
#1108=CARTESIAN_POINT('',(103.999999970198,-2.,-27.6));
#1109=CARTESIAN_POINT('',(103.999999970198,-2.,0.));
#1110=CARTESIAN_POINT('',(103.999999970198,102.,-27.6));
#1111=CARTESIAN_POINT('',(103.999999970198,-4.,-27.6));
#1112=CARTESIAN_POINT('',(103.999999970198,102.,0.));
#1113=CARTESIAN_POINT('Origin',(-2.00000002980232,102.,0.));
#1114=CARTESIAN_POINT('',(-2.00000002980232,-1.99999999999999,0.));
#1115=CARTESIAN_POINT('',(-2.00000002980232,102.,0.));
#1116=CARTESIAN_POINT('',(-2.00000002980232,75.7481895273854,0.));
#1117=CARTESIAN_POINT('',(-2.00000002980232,-1.99999999999999,-25.6));
#1118=CARTESIAN_POINT('',(-2.00000002980232,-1.99999999999999,0.));
#1119=CARTESIAN_POINT('',(-2.00000002980232,102.,-25.6));
#1120=CARTESIAN_POINT('',(-2.00000002980232,102.,-25.6));
#1121=CARTESIAN_POINT('',(-2.00000002980232,102.,2.));
#1122=CARTESIAN_POINT('Origin',(-2.00000002980232,-2.,0.));
#1123=CARTESIAN_POINT('',(101.999999970198,-1.99999999999999,0.));
#1124=CARTESIAN_POINT('',(23.4977130178217,-2.,0.));
#1125=CARTESIAN_POINT('',(101.999999970198,-1.99999999999999,-25.6));
#1126=CARTESIAN_POINT('',(101.999999970198,-1.99999999999999,2.));
#1127=CARTESIAN_POINT('',(-2.00000002980232,-2.,-25.6));
#1128=CARTESIAN_POINT('Origin',(101.999999970198,102.,0.));
#1129=CARTESIAN_POINT('',(101.999999970198,102.,0.));
#1130=CARTESIAN_POINT('',(75.4977130178217,102.,0.));
#1131=CARTESIAN_POINT('',(101.999999970198,102.,-25.6));
#1132=CARTESIAN_POINT('',(101.999999970198,102.,-25.6));
#1133=CARTESIAN_POINT('',(101.999999970198,102.,0.));
#1134=CARTESIAN_POINT('Origin',(3.,30.,-23.6));
#1135=CARTESIAN_POINT('',(5.65,30.,-23.6));
#1136=CARTESIAN_POINT('Origin',(3.,30.,-23.6));
#1137=CARTESIAN_POINT('',(4.65,30.,-23.6));
#1138=CARTESIAN_POINT('Origin',(3.,30.,-23.6));
#1139=CARTESIAN_POINT('Origin',(97.,3.,-23.6));
#1140=CARTESIAN_POINT('',(99.65,3.,-23.6));
#1141=CARTESIAN_POINT('Origin',(97.,3.,-23.6));
#1142=CARTESIAN_POINT('',(98.65,3.,-23.6));
#1143=CARTESIAN_POINT('Origin',(97.,3.,-23.6));
#1144=CARTESIAN_POINT('Origin',(97.,85.,-23.6));
#1145=CARTESIAN_POINT('',(99.65,85.,-23.6));
#1146=CARTESIAN_POINT('Origin',(97.,85.,-23.6));
#1147=CARTESIAN_POINT('',(98.65,85.,-23.6));
#1148=CARTESIAN_POINT('Origin',(97.,85.,-23.6));
#1149=CARTESIAN_POINT('Origin',(3.,30.,-23.6));
#1150=CARTESIAN_POINT('',(4.65,30.,-25.6));
#1151=CARTESIAN_POINT('',(4.65,30.,-23.6));
#1152=CARTESIAN_POINT('Origin',(3.,30.,-25.6));
#1153=CARTESIAN_POINT('Origin',(97.,3.,-23.6));
#1154=CARTESIAN_POINT('',(98.65,3.,-25.6));
#1155=CARTESIAN_POINT('',(98.65,3.,-23.6));
#1156=CARTESIAN_POINT('Origin',(97.,3.,-25.6));
#1157=CARTESIAN_POINT('Origin',(97.,85.,-23.6));
#1158=CARTESIAN_POINT('',(98.65,85.,-25.6));
#1159=CARTESIAN_POINT('',(98.65,85.,-23.6));
#1160=CARTESIAN_POINT('Origin',(97.,85.,-25.6));
#1161=CARTESIAN_POINT('Origin',(97.,85.,-23.6));
#1162=CARTESIAN_POINT('',(101.65,85.,-25.6));
#1163=CARTESIAN_POINT('Origin',(101.65,85.,-23.6));
#1164=CARTESIAN_POINT('Origin',(97.,85.,-25.6));
#1165=CARTESIAN_POINT('Origin',(3.,30.,-23.6));
#1166=CARTESIAN_POINT('',(7.65,30.,-25.6));
#1167=CARTESIAN_POINT('Origin',(7.65,30.,-23.6));
#1168=CARTESIAN_POINT('Origin',(3.,30.,-25.6));
#1169=CARTESIAN_POINT('Origin',(49.9999999701977,50.,-25.6));
#1170=CARTESIAN_POINT('',(101.999999970198,-2.,-25.6));
#1171=CARTESIAN_POINT('',(101.65,3.,-25.6));
#1172=CARTESIAN_POINT('Origin',(97.,3.,-25.6));
#1173=CARTESIAN_POINT('Origin',(97.,3.,-23.6));
#1174=CARTESIAN_POINT('Origin',(101.65,3.,-23.6));
#1175=CARTESIAN_POINT('Origin',(97.,85.,-27.6));
#1176=CARTESIAN_POINT('',(93.5,85.,-27.6));
#1177=CARTESIAN_POINT('Origin',(97.,85.,-27.6));
#1178=CARTESIAN_POINT('',(93.5,85.,-27.5943670675179));
#1179=CARTESIAN_POINT('',(93.5,85.,-27.6));
#1180=CARTESIAN_POINT('',(100.5,85.,-27.5943670675179));
#1181=CARTESIAN_POINT('Origin',(97.,85.,-27.5943670675179));
#1182=CARTESIAN_POINT('Origin',(97.,85.,-27.5943670675179));
#1183=CARTESIAN_POINT('Ctrl Pts',(98.65,85.,-25.6));
#1184=CARTESIAN_POINT('Ctrl Pts',(98.65,83.35,-25.6));
#1185=CARTESIAN_POINT('Ctrl Pts',(97.,83.35,-25.6));
#1186=CARTESIAN_POINT('Ctrl Pts',(95.35,83.35,-25.6));
#1187=CARTESIAN_POINT('Ctrl Pts',(95.35,85.,-25.6));
#1188=CARTESIAN_POINT('Ctrl Pts',(95.35,86.65,-25.6));
#1189=CARTESIAN_POINT('Ctrl Pts',(97.,86.65,-25.6));
#1190=CARTESIAN_POINT('Ctrl Pts',(98.65,86.65,-25.6));
#1191=CARTESIAN_POINT('Ctrl Pts',(98.65,85.,-25.6));
#1192=CARTESIAN_POINT('Ctrl Pts',(100.5,85.,-25.7391418884315));
#1193=CARTESIAN_POINT('Ctrl Pts',(100.5,81.5,-25.7391418884315));
#1194=CARTESIAN_POINT('Ctrl Pts',(97.,81.5,-25.7391418884315));
#1195=CARTESIAN_POINT('Ctrl Pts',(93.5,81.5,-25.7391418884315));
#1196=CARTESIAN_POINT('Ctrl Pts',(93.5,85.,-25.7391418884315));
#1197=CARTESIAN_POINT('Ctrl Pts',(93.5,88.5,-25.7391418884315));
#1198=CARTESIAN_POINT('Ctrl Pts',(97.,88.5,-25.7391418884315));
#1199=CARTESIAN_POINT('Ctrl Pts',(100.5,88.5,-25.7391418884315));
#1200=CARTESIAN_POINT('Ctrl Pts',(100.5,85.,-25.7391418884315));
#1201=CARTESIAN_POINT('Ctrl Pts',(100.5,85.,-27.5943670675179));
#1202=CARTESIAN_POINT('Ctrl Pts',(100.5,81.5,-27.5943670675179));
#1203=CARTESIAN_POINT('Ctrl Pts',(97.,81.5,-27.5943670675179));
#1204=CARTESIAN_POINT('Ctrl Pts',(93.5,81.5,-27.5943670675179));
#1205=CARTESIAN_POINT('Ctrl Pts',(93.5,85.,-27.5943670675179));
#1206=CARTESIAN_POINT('Ctrl Pts',(93.5,88.5,-27.5943670675179));
#1207=CARTESIAN_POINT('Ctrl Pts',(97.,88.5,-27.5943670675179));
#1208=CARTESIAN_POINT('Ctrl Pts',(100.5,88.5,-27.5943670675179));
#1209=CARTESIAN_POINT('Ctrl Pts',(100.5,85.,-27.5943670675179));
#1210=CARTESIAN_POINT('Origin',(98.5,85.,-27.5943670675179));
#1211=CARTESIAN_POINT('Origin',(3.,30.,-27.6));
#1212=CARTESIAN_POINT('',(-0.499999999999999,30.,-27.6));
#1213=CARTESIAN_POINT('Origin',(3.,30.,-27.6));
#1214=CARTESIAN_POINT('',(-0.499999999999999,30.,-27.5943670675179));
#1215=CARTESIAN_POINT('',(-0.499999999999999,30.,-27.6));
#1216=CARTESIAN_POINT('',(6.5,30.,-27.5943670675179));
#1217=CARTESIAN_POINT('Origin',(3.,30.,-27.5943670675179));
#1218=CARTESIAN_POINT('Origin',(3.,30.,-27.5943670675179));
#1219=CARTESIAN_POINT('Ctrl Pts',(4.65,30.,-25.6));
#1220=CARTESIAN_POINT('Ctrl Pts',(4.65,28.35,-25.6));
#1221=CARTESIAN_POINT('Ctrl Pts',(3.,28.35,-25.6));
#1222=CARTESIAN_POINT('Ctrl Pts',(1.35,28.35,-25.6));
#1223=CARTESIAN_POINT('Ctrl Pts',(1.35,30.,-25.6));
#1224=CARTESIAN_POINT('Ctrl Pts',(1.35,31.65,-25.6));
#1225=CARTESIAN_POINT('Ctrl Pts',(3.,31.65,-25.6));
#1226=CARTESIAN_POINT('Ctrl Pts',(4.65,31.65,-25.6));
#1227=CARTESIAN_POINT('Ctrl Pts',(4.65,30.,-25.6));
#1228=CARTESIAN_POINT('Ctrl Pts',(6.5,30.,-25.7391418884315));
#1229=CARTESIAN_POINT('Ctrl Pts',(6.5,26.5,-25.7391418884315));
#1230=CARTESIAN_POINT('Ctrl Pts',(3.,26.5,-25.7391418884315));
#1231=CARTESIAN_POINT('Ctrl Pts',(-0.499999999999999,26.5,-25.7391418884315));
#1232=CARTESIAN_POINT('Ctrl Pts',(-0.499999999999999,30.,-25.7391418884315));
#1233=CARTESIAN_POINT('Ctrl Pts',(-0.499999999999999,33.5,-25.7391418884315));
#1234=CARTESIAN_POINT('Ctrl Pts',(3.,33.5,-25.7391418884315));
#1235=CARTESIAN_POINT('Ctrl Pts',(6.5,33.5,-25.7391418884315));
#1236=CARTESIAN_POINT('Ctrl Pts',(6.5,30.,-25.7391418884315));
#1237=CARTESIAN_POINT('Ctrl Pts',(6.5,30.,-27.5943670675179));
#1238=CARTESIAN_POINT('Ctrl Pts',(6.5,26.5,-27.5943670675179));
#1239=CARTESIAN_POINT('Ctrl Pts',(3.,26.5,-27.5943670675179));
#1240=CARTESIAN_POINT('Ctrl Pts',(-0.499999999999999,26.5,-27.5943670675179));
#1241=CARTESIAN_POINT('Ctrl Pts',(-0.499999999999999,30.,-27.5943670675179));
#1242=CARTESIAN_POINT('Ctrl Pts',(-0.499999999999999,33.5,-27.5943670675179));
#1243=CARTESIAN_POINT('Ctrl Pts',(3.,33.5,-27.5943670675179));
#1244=CARTESIAN_POINT('Ctrl Pts',(6.5,33.5,-27.5943670675179));
#1245=CARTESIAN_POINT('Ctrl Pts',(6.5,30.,-27.5943670675179));
#1246=CARTESIAN_POINT('Origin',(4.5,30.,-27.5943670675179));
#1247=CARTESIAN_POINT('Origin',(97.,3.,-27.6));
#1248=CARTESIAN_POINT('',(93.5,3.,-27.6));
#1249=CARTESIAN_POINT('Origin',(97.,3.,-27.6));
#1250=CARTESIAN_POINT('',(93.5,3.,-27.5943670675179));
#1251=CARTESIAN_POINT('',(93.5,3.,-27.6));
#1252=CARTESIAN_POINT('',(100.5,3.,-27.5943670675179));
#1253=CARTESIAN_POINT('Origin',(97.,3.,-27.5943670675179));
#1254=CARTESIAN_POINT('Origin',(97.,3.,-27.5943670675179));
#1255=CARTESIAN_POINT('Ctrl Pts',(98.65,3.,-25.6));
#1256=CARTESIAN_POINT('Ctrl Pts',(98.65,1.34999999999999,-25.6));
#1257=CARTESIAN_POINT('Ctrl Pts',(97.,1.34999999999999,-25.6));
#1258=CARTESIAN_POINT('Ctrl Pts',(95.35,1.34999999999999,-25.6));
#1259=CARTESIAN_POINT('Ctrl Pts',(95.35,3.,-25.6));
#1260=CARTESIAN_POINT('Ctrl Pts',(95.35,4.65000000000001,-25.6));
#1261=CARTESIAN_POINT('Ctrl Pts',(97.,4.65000000000001,-25.6));
#1262=CARTESIAN_POINT('Ctrl Pts',(98.65,4.65000000000001,-25.6));
#1263=CARTESIAN_POINT('Ctrl Pts',(98.65,3.,-25.6));
#1264=CARTESIAN_POINT('Ctrl Pts',(100.5,3.,-25.7391418884315));
#1265=CARTESIAN_POINT('Ctrl Pts',(100.5,-0.499999999999995,-25.7391418884315));
#1266=CARTESIAN_POINT('Ctrl Pts',(97.,-0.499999999999996,-25.7391418884315));
#1267=CARTESIAN_POINT('Ctrl Pts',(93.5,-0.499999999999995,-25.7391418884315));
#1268=CARTESIAN_POINT('Ctrl Pts',(93.5,3.,-25.7391418884315));
#1269=CARTESIAN_POINT('Ctrl Pts',(93.5,6.5,-25.7391418884315));
#1270=CARTESIAN_POINT('Ctrl Pts',(97.,6.5,-25.7391418884315));
#1271=CARTESIAN_POINT('Ctrl Pts',(100.5,6.5,-25.7391418884315));
#1272=CARTESIAN_POINT('Ctrl Pts',(100.5,3.,-25.7391418884315));
#1273=CARTESIAN_POINT('Ctrl Pts',(100.5,3.,-27.5943670675179));
#1274=CARTESIAN_POINT('Ctrl Pts',(100.5,-0.499999999999995,-27.5943670675179));
#1275=CARTESIAN_POINT('Ctrl Pts',(97.,-0.499999999999996,-27.5943670675179));
#1276=CARTESIAN_POINT('Ctrl Pts',(93.5,-0.499999999999995,-27.5943670675179));
#1277=CARTESIAN_POINT('Ctrl Pts',(93.5,3.,-27.5943670675179));
#1278=CARTESIAN_POINT('Ctrl Pts',(93.5,6.5,-27.5943670675179));
#1279=CARTESIAN_POINT('Ctrl Pts',(97.,6.5,-27.5943670675179));
#1280=CARTESIAN_POINT('Ctrl Pts',(100.5,6.5,-27.5943670675179));
#1281=CARTESIAN_POINT('Ctrl Pts',(100.5,3.,-27.5943670675179));
#1282=CARTESIAN_POINT('Origin',(98.5,3.,-27.5943670675179));
#1283=CARTESIAN_POINT('Origin',(101.999999970198,102.,0.));
#1284=CARTESIAN_POINT('',(101.999999970198,104.,-27.6));
#1285=CARTESIAN_POINT('Origin',(101.999999970198,102.,-27.6));
#1286=CARTESIAN_POINT('',(101.999999970198,104.,0.));
#1287=CARTESIAN_POINT('',(101.999999970198,104.,0.));
#1288=CARTESIAN_POINT('Origin',(101.999999970198,102.,0.));
#1289=CARTESIAN_POINT('Origin',(-4.00000002980232,104.,0.));
#1290=CARTESIAN_POINT('',(-2.00000002980232,104.,0.));
#1291=CARTESIAN_POINT('',(22.4977130178217,104.,0.));
#1292=CARTESIAN_POINT('',(-2.00000002980232,104.,-27.6));
#1293=CARTESIAN_POINT('',(103.999999970198,104.,-27.6));
#1294=CARTESIAN_POINT('',(-2.00000002980232,104.,0.));
#1295=CARTESIAN_POINT('Origin',(49.9999999701977,50.,-27.6));
#1296=CARTESIAN_POINT('',(101.999999970198,-4.,-27.6));
#1297=CARTESIAN_POINT('Origin',(101.999999970198,-2.,-27.6));
#1298=CARTESIAN_POINT('',(-2.00000002980232,-4.,-27.6));
#1299=CARTESIAN_POINT('',(-4.00000002980232,-4.,-27.6));
#1300=CARTESIAN_POINT('',(-4.00000002980232,-1.99999999999999,-27.6));
#1301=CARTESIAN_POINT('Origin',(-2.00000002980232,-2.,-27.6));
#1302=CARTESIAN_POINT('',(-4.00000002980232,102.,-27.6));
#1303=CARTESIAN_POINT('',(-4.00000002980232,104.,-27.6));
#1304=CARTESIAN_POINT('Origin',(-2.00000002980232,102.,-27.6));
#1305=CARTESIAN_POINT('Origin',(101.999999970198,-2.,0.));
#1306=CARTESIAN_POINT('',(101.999999970198,-4.,0.));
#1307=CARTESIAN_POINT('Origin',(101.999999970198,-2.,0.));
#1308=CARTESIAN_POINT('',(101.999999970198,-4.,0.));
#1309=CARTESIAN_POINT('Origin',(49.9999999701977,50.,0.));
#1310=CARTESIAN_POINT('',(-4.00000002980232,102.,0.));
#1311=CARTESIAN_POINT('',(-4.00000002980232,-2.,0.));
#1312=CARTESIAN_POINT('',(-4.00000002980232,22.7481895273854,0.));
#1313=CARTESIAN_POINT('',(-2.00000002980232,-4.,0.));
#1314=CARTESIAN_POINT('Origin',(-2.00000002980232,-2.,0.));
#1315=CARTESIAN_POINT('',(76.4977130178217,-4.,0.));
#1316=CARTESIAN_POINT('Origin',(-2.00000002980232,102.,0.));
#1317=CARTESIAN_POINT('',(101.999999970198,-2.,0.));
#1318=CARTESIAN_POINT('Origin',(-2.00000002980232,102.,0.));
#1319=CARTESIAN_POINT('',(-4.00000002980232,102.,0.));
#1320=CARTESIAN_POINT('Origin',(-4.00000002980232,-4.,0.));
#1321=CARTESIAN_POINT('',(-4.00000002980232,-2.,0.));
#1322=CARTESIAN_POINT('Origin',(-2.00000002980232,-2.,0.));
#1323=CARTESIAN_POINT('',(-2.00000002980232,-4.,0.));
#1324=CARTESIAN_POINT('Origin',(101.999999970198,-2.,0.));
#1325=CARTESIAN_POINT('Origin',(103.999999970198,-4.,0.));
#1326=UNCERTAINTY_MEASURE_WITH_UNIT(LENGTH_MEASURE(0.01),#1330,
'DISTANCE_ACCURACY_VALUE',
'Maximum model space distance between geometric entities at asserted c
onnectivities');
#1327=UNCERTAINTY_MEASURE_WITH_UNIT(LENGTH_MEASURE(0.01),#1330,
'DISTANCE_ACCURACY_VALUE',
'Maximum model space distance between geometric entities at asserted c
onnectivities');
#1328=(
GEOMETRIC_REPRESENTATION_CONTEXT(3)
GLOBAL_UNCERTAINTY_ASSIGNED_CONTEXT((#1326))
GLOBAL_UNIT_ASSIGNED_CONTEXT((#1330,#1332,#1333))
REPRESENTATION_CONTEXT('','3D')
);
#1329=(
GEOMETRIC_REPRESENTATION_CONTEXT(3)
GLOBAL_UNCERTAINTY_ASSIGNED_CONTEXT((#1327))
GLOBAL_UNIT_ASSIGNED_CONTEXT((#1330,#1332,#1333))
REPRESENTATION_CONTEXT('','3D')
);
#1330=(
LENGTH_UNIT()
NAMED_UNIT(*)
SI_UNIT(.MILLI.,.METRE.)
);
#1331=(
LENGTH_UNIT()
NAMED_UNIT(*)
SI_UNIT($,.METRE.)
);
#1332=(
NAMED_UNIT(*)
PLANE_ANGLE_UNIT()
SI_UNIT($,.RADIAN.)
);
#1333=(
NAMED_UNIT(*)
SI_UNIT($,.STERADIAN.)
SOLID_ANGLE_UNIT()
);
#1334=SHAPE_DEFINITION_REPRESENTATION(#1335,#1336);
#1335=PRODUCT_DEFINITION_SHAPE('',$,#1338);
#1336=SHAPE_REPRESENTATION('',(#708),#1328);
#1337=PRODUCT_DEFINITION_CONTEXT('part definition',#1342,'design');
#1338=PRODUCT_DEFINITION('VNA_Kutu_Alt','VNA_Kutu_Alt v1',#1339,#1337);
#1339=PRODUCT_DEFINITION_FORMATION('',$,#1344);
#1340=PRODUCT_RELATED_PRODUCT_CATEGORY('VNA_Kutu_Alt v1',
'VNA_Kutu_Alt v1',(#1344));
#1341=APPLICATION_PROTOCOL_DEFINITION('international standard',
'automotive_design',2009,#1342);
#1342=APPLICATION_CONTEXT(
'Core Data for Automotive Mechanical Design Process');
#1343=PRODUCT_CONTEXT('part definition',#1342,'mechanical');
#1344=PRODUCT('VNA_Kutu_Alt','VNA_Kutu_Alt v1',$,(#1343));
#1345=PRESENTATION_STYLE_ASSIGNMENT((#1346));
#1346=SURFACE_STYLE_USAGE(.BOTH.,#1347);
#1347=SURFACE_SIDE_STYLE('',(#1348));
#1348=SURFACE_STYLE_FILL_AREA(#1349);
#1349=FILL_AREA_STYLE('\X\C7elik - Saten',(#1350));
#1350=FILL_AREA_STYLE_COLOUR('\X\C7elik - Saten',#1351);
#1351=COLOUR_RGB('\X\C7elik - Saten',0.627450980392157,0.627450980392157,
0.627450980392157);
ENDSEC;
END-ISO-10303-21;
